<svg width="88" height="88" viewBox="0 0 88 88" fill="none" xmlns="http://www.w3.org/2000/svg">
<path d="M21.3474 73.4972C20.6051 73.482 19.8977 73.1789 19.3745 72.6521C18.8514 72.1252 18.5533 71.4157 18.5432 70.6733V37.5664H23.4801V41.2197H65.9376C66.6953 41.2197 67.4221 41.52 67.9588 42.0549C68.4955 42.5898 68.7984 43.3155 68.801 44.0733V70.6733C68.7906 71.4259 68.4843 72.1441 67.9485 72.6726C67.4126 73.2011 66.6902 73.4973 65.9376 73.4972H21.3474Z" fill="#E6FEFC"/>
<path d="M22.9172 38.0583V41.7116H65.9374C66.5651 41.7142 67.1663 41.9647 67.6102 42.4086C68.054 42.8524 68.3045 43.4536 68.3071 44.0813V70.6715C68.3045 71.2983 68.0537 71.8985 67.6096 72.3408C67.1654 72.7831 66.5642 73.0314 65.9374 73.0314H21.3472C21.0373 73.0314 20.7305 72.9704 20.4442 72.8518C20.1578 72.7332 19.8977 72.5593 19.6786 72.3402C19.4594 72.1211 19.2856 71.8609 19.167 71.5746C19.0484 71.2883 18.9874 70.9814 18.9874 70.6715V38.0879H22.9369L22.9172 38.0583ZM23.9243 37.1005H18V70.6715C18 71.1111 18.0866 71.5464 18.2548 71.9525C18.423 72.3586 18.6696 72.7276 18.9804 73.0384C19.2912 73.3492 19.6602 73.5958 20.0663 73.764C20.4724 73.9322 20.9077 74.0188 21.3472 74.0188H65.9374C66.8261 74.0188 67.6785 73.6664 68.3078 73.039C68.9371 72.4115 69.2919 71.5602 69.2945 70.6715V44.0813C69.2945 43.191 68.9408 42.3371 68.3112 41.7075C67.6817 41.0779 66.8278 40.7242 65.9374 40.7242H23.9045V37.0709L23.9243 37.1005Z" fill="#333333"/>
<path d="M64.644 38.5311V41.2267H22.0088C21.529 41.2267 21.054 41.1322 20.6107 40.9486C20.1675 40.765 19.7647 40.4959 19.4255 40.1566C19.0863 39.8174 18.8172 39.4146 18.6336 38.9714C18.45 38.5282 18.3555 38.0531 18.3555 37.5733V37.5733C18.3555 36.6035 18.7401 35.6733 19.4249 34.9866C20.1097 34.2999 21.039 33.9128 22.0088 33.9102H60.0131C61.2396 33.9102 62.416 34.3967 63.2841 35.263C64.1523 36.1293 64.6413 37.3046 64.644 38.5311Z" fill="#B5F3F2"/>
<path d="M61.3462 63.747L61.3489 63.747L68.6743 63.7075L68.6725 63.2075L68.6752 63.7075L68.6745 63.7075C69.5592 63.7044 70.4066 63.3508 71.0311 62.7241C71.6557 62.0974 72.0063 61.2487 72.0063 60.3639V54.2421C72.0063 53.3573 71.6557 52.5086 71.0311 51.8819C70.4066 51.2551 69.5591 50.9015 68.6743 50.8984H68.6725H61.3462C59.6423 50.8984 58.0083 51.5753 56.8035 52.7801C55.5987 53.9849 54.9219 55.6189 54.9219 57.3227C54.9219 59.0266 55.5987 60.6606 56.8035 61.8654C58.0083 63.0702 59.6423 63.747 61.3462 63.747Z" fill="#B5F3F2" stroke="#333333"/>
<path d="M61.3263 60.0476C60.7912 60.0476 60.2681 59.8889 59.8232 59.5916C59.3783 59.2944 59.0316 58.8718 58.8268 58.3775C58.622 57.8831 58.5684 57.3391 58.6728 56.8143C58.7772 56.2895 59.0349 55.8075 59.4133 55.4291C59.7916 55.0508 60.2737 54.7931 60.7985 54.6887C61.3233 54.5843 61.8672 54.6379 62.3616 54.8427C62.856 55.0474 63.2785 55.3942 63.5758 55.8391C63.873 56.284 64.0317 56.8071 64.0317 57.3421C64.0317 58.0597 63.7467 58.7478 63.2393 59.2552C62.7319 59.7625 62.0438 60.0476 61.3263 60.0476V60.0476Z" fill="#FFEF85"/>
<path d="M61.328 55.128C61.7655 55.128 62.1931 55.2577 62.5568 55.5008C62.9205 55.7438 63.204 56.0892 63.3714 56.4933C63.5388 56.8975 63.5826 57.3422 63.4973 57.7712C63.4119 58.2003 63.2013 58.5944 62.892 58.9037C62.5826 59.213 62.1885 59.4236 61.7595 59.509C61.3305 59.5943 60.8858 59.5505 60.4816 59.3831C60.0775 59.2157 59.7321 58.9322 59.489 58.5685C59.246 58.2048 59.1163 57.7772 59.1163 57.3397C59.1163 57.0493 59.1735 56.7617 59.2846 56.4933C59.3958 56.225 59.5587 55.9812 59.7641 55.7758C59.9695 55.5704 60.2133 55.4075 60.4816 55.2964C60.75 55.1852 61.0376 55.128 61.328 55.128ZM61.328 54.1406C60.4796 54.1406 59.6659 54.4777 59.0659 55.0776C58.466 55.6776 58.1289 56.4913 58.1289 57.3397V57.3397C58.1289 57.9725 58.3165 58.591 58.6681 59.1171C59.0196 59.6432 59.5192 60.0532 60.1038 60.2953C60.6883 60.5375 61.3316 60.6008 61.9521 60.4774C62.5727 60.354 63.1427 60.0493 63.5901 59.6019C64.0375 59.1545 64.3422 58.5844 64.4657 57.9639C64.5891 57.3433 64.5258 56.7001 64.2836 56.1155C64.0415 55.5309 63.6315 55.0313 63.1054 54.6798C62.5793 54.3282 61.9608 54.1406 61.328 54.1406V54.1406Z" fill="#333333"/>
<path d="M18.3828 37.6033C18.3828 36.6343 18.7677 35.7051 19.4528 35.02C20.138 34.3349 21.0672 33.95 22.0361 33.95L59.4678 34.0388" stroke="#333333" stroke-miterlimit="10"/>
<path d="M64.6425 41.2306V38.535C64.6398 37.3086 64.1508 36.1332 63.2826 35.2669C62.4145 34.4006 61.2381 33.9141 60.0116 33.9141H57.168" stroke="#231F20" stroke-miterlimit="10"/>
<path d="M58.7809 40.845C58.7861 40.836 58.7888 40.8258 58.7888 40.8154C58.7888 40.805 58.7861 40.7948 58.7809 40.7858V20.6827C58.7809 20.4208 58.6768 20.1697 58.4917 19.9845C58.3065 19.7993 58.0554 19.6953 57.7935 19.6953H33.4249C33.163 19.6953 32.9119 19.7993 32.7267 19.9845C32.5415 20.1697 32.4375 20.4208 32.4375 20.6827V40.7858C32.4375 40.7936 32.439 40.8013 32.442 40.8085C32.445 40.8157 32.4494 40.8222 32.4549 40.8277C32.4604 40.8332 32.4669 40.8376 32.4741 40.8405C32.4813 40.8435 32.489 40.845 32.4967 40.845" fill="#38C1C9"/>
<path d="M58.7809 40.845C58.7861 40.836 58.7888 40.8258 58.7888 40.8154C58.7888 40.805 58.7861 40.7948 58.7809 40.7858V20.6827C58.7809 20.4208 58.6768 20.1697 58.4917 19.9845C58.3065 19.7993 58.0554 19.6953 57.7935 19.6953H33.4249C33.163 19.6953 32.9119 19.7993 32.7267 19.9845C32.5415 20.1697 32.4375 20.4208 32.4375 20.6827V40.7858C32.4375 40.7936 32.439 40.8013 32.442 40.8085C32.445 40.8157 32.4494 40.8222 32.4549 40.8277C32.4604 40.8332 32.4669 40.8376 32.4741 40.8405C32.4813 40.8435 32.489 40.845 32.4967 40.845" stroke="#333333" stroke-miterlimit="10" stroke-linecap="round"/>
<path d="M53.9704 40.9148V24.1787C53.9775 24.0407 53.9555 23.9027 53.906 23.7737C53.8564 23.6447 53.7802 23.5275 53.6825 23.4298C53.5848 23.3321 53.4676 23.256 53.3386 23.2064C53.2096 23.1568 53.0717 23.1348 52.9337 23.1419H28.3281C28.1901 23.1348 28.0521 23.1568 27.9231 23.2064C27.7941 23.256 27.677 23.3321 27.5792 23.4298C27.4815 23.5275 27.4054 23.6447 27.3558 23.7737C27.3062 23.9027 27.2842 24.0407 27.2913 24.1787V40.9148" fill="#38C1C9"/>
<path d="M53.9704 40.9148V24.1787C53.9775 24.0407 53.9555 23.9027 53.906 23.7737C53.8564 23.6447 53.7802 23.5275 53.6825 23.4298C53.5848 23.3321 53.4676 23.256 53.3386 23.2064C53.2096 23.1568 53.0717 23.1348 52.9337 23.1419H28.3281C28.1901 23.1348 28.0521 23.1568 27.9231 23.2064C27.7941 23.256 27.677 23.3321 27.5792 23.4298C27.4815 23.5275 27.4054 23.6447 27.3558 23.7737C27.3062 23.9027 27.2842 24.0407 27.2913 24.1787V40.9148" stroke="#333333" stroke-miterlimit="10" stroke-linecap="round"/>
<path d="M31.0547 40.8424V33.1803C31.0538 33.0668 31.0945 32.9569 31.169 32.8714C31.2436 32.7859 31.347 32.7307 31.4595 32.7162C32.5768 32.6127 33.6227 32.1217 34.4161 31.3283C35.2095 30.5349 35.7005 29.489 35.804 28.3717C35.8162 28.2574 35.8705 28.1517 35.9562 28.0751C36.042 27.9984 36.1531 27.9564 36.2681 27.957H44.9965C45.1115 27.9564 45.2227 27.9984 45.3084 28.0751C45.3941 28.1517 45.4484 28.2574 45.4606 28.3717C45.5585 29.4911 46.0476 30.5402 46.8422 31.3347C47.6367 32.1292 48.6857 32.6183 49.8051 32.7162C49.9185 32.7286 50.0232 32.7832 50.0982 32.8692C50.1732 32.9552 50.2131 33.0662 50.2099 33.1803V40.8424" fill="#B5F3F2"/>
<path d="M31.0547 40.8424V33.1803C31.0538 33.0668 31.0945 32.9569 31.169 32.8714C31.2436 32.7859 31.347 32.7307 31.4595 32.7162C32.5768 32.6127 33.6227 32.1217 34.4161 31.3283C35.2095 30.5349 35.7005 29.489 35.804 28.3717C35.8162 28.2574 35.8705 28.1517 35.9562 28.0751C36.042 27.9984 36.1531 27.9564 36.2681 27.957H44.9965C45.1115 27.9564 45.2227 27.9984 45.3084 28.0751C45.3941 28.1517 45.4484 28.2574 45.4606 28.3717C45.5585 29.4911 46.0476 30.5402 46.8422 31.3347C47.6367 32.1292 48.6857 32.6183 49.8051 32.7162C49.9185 32.7286 50.0232 32.7832 50.0982 32.8692C50.1732 32.9552 50.2131 33.0662 50.2099 33.1803V40.8424" stroke="#333333" stroke-miterlimit="10"/>
<path d="M18.3828 37.6016C18.3828 38.5563 18.7677 39.472 19.4528 40.1471C20.138 40.8223 21.0672 41.2016 22.0361 41.2016H64.6121" stroke="#333333" stroke-miterlimit="10"/>
</svg>
