<svg width="132" height="78" viewBox="0 0 132 78" fill="none" xmlns="http://www.w3.org/2000/svg">
<path d="M38.7202 18.0921L72.906 11.6022C73.214 11.5437 73.4992 11.7799 73.4992 12.0934V69.8739C73.4992 70.1925 73.2051 70.4299 72.8936 70.3626L38.6832 62.9698C37.9928 62.8206 37.5 62.21 37.5 61.5036V19.5658C37.5 18.8453 38.0123 18.2265 38.7202 18.0921Z" fill="#38C98C" stroke="#333333"/>
<path d="M73.499 16.2461H92.9986C93.827 16.2461 94.4986 16.9177 94.4986 17.7461V64.2593C94.4986 65.0877 93.827 65.7593 92.9986 65.7593H73.499V16.2461Z" stroke="#333333"/>
<path d="M73.499 23.042H86.9987C87.8271 23.042 88.4987 23.7136 88.4987 24.542V26.3704C88.4987 27.1989 87.8271 27.8704 86.9987 27.8704H73.499V23.042Z" fill="#38C98C" stroke="#333333"/>
<line x1="80.499" y1="27.3999" x2="80.499" y2="23.5143" stroke="#333333"/>
<path d="M73.499 33.7266H86.9987C87.8271 33.7266 88.4987 34.3981 88.4987 35.2266V37.055C88.4987 37.8834 87.8271 38.555 86.9987 38.555H73.499V33.7266Z" fill="#38C98C" stroke="#333333"/>
<line x1="80.499" y1="38.0835" x2="80.499" y2="34.1979" stroke="#333333"/>
<path d="M73.499 43.4419H86.9987C87.8271 43.4419 88.4987 44.1135 88.4987 44.9419V46.7703C88.4987 47.5988 87.8271 48.2703 86.9987 48.2703H73.499V43.4419Z" fill="#38C98C" stroke="#333333"/>
<line x1="80.499" y1="47.7988" x2="80.499" y2="43.9132" stroke="#333333"/>
<path d="M73.499 54.1284H86.9987C87.8271 54.1284 88.4987 54.8 88.4987 55.6284V57.4569C88.4987 58.2853 87.8271 58.9569 86.9987 58.9569H73.499V54.1284Z" fill="#38C98C" stroke="#333333"/>
<line x1="80.499" y1="58.4834" x2="80.499" y2="54.5978" stroke="#333333"/>
<line x1="45.8376" y1="32.3177" x2="60.736" y2="50.0096" stroke="#333333" stroke-linecap="round" stroke-linejoin="round"/>
<line x1="0.5" y1="-0.5" x2="23.6293" y2="-0.5" transform="matrix(-0.644136 0.764911 0.764911 0.644136 61.6475 31.2881)" stroke="#333333" stroke-linecap="round" stroke-linejoin="round"/>
</svg>
