<svg width="132" height="78" viewBox="0 0 132 78" fill="none" xmlns="http://www.w3.org/2000/svg">
<path d="M43.1517 61.447L42.4036 53.1295L59.1122 46.2656L55.7871 61.447H43.1517Z" fill="#FC2D2D"/>
<path d="M75.7377 61.447L71.5814 41.2589L81.3904 36.979L94.9402 61.447H75.7377Z" fill="#FC2D2D"/>
<path d="M43.1517 61.447L42.4036 53.1295L59.1122 46.2656L55.7871 61.447H43.1517Z" stroke="#333333" stroke-linecap="round" stroke-linejoin="round"/>
<path d="M75.7377 61.447L71.5814 41.2589L81.3904 36.979L94.9402 61.447H75.7377Z" stroke="#333333" stroke-linecap="round" stroke-linejoin="round"/>
<path d="M71.8305 41.0952L59.1951 46.2634L56.1194 61.2834H75.5297L71.8305 41.0952Z" fill="#C21D08"/>
<path d="M43.0683 61.2834L42.3202 53.2889H41.6551L37 61.2834H43.0683Z" fill="#C21D08"/>
<path d="M71.8305 41.0952L59.1951 46.2634L56.1194 61.2834H75.5297L71.8305 41.0952Z" stroke="#333333" stroke-linecap="round" stroke-linejoin="round"/>
<path d="M43.0683 61.2834L42.3202 53.2889H41.6551L37 61.2834H43.0683Z" stroke="#333333" stroke-linecap="round" stroke-linejoin="round"/>
<path d="M65.5497 9.30859L58.6833 47.1986L41.281 54.0171L65.5497 9.30859L81.4771 37.1588L71.9207 41.4223L65.5497 9.30859Z" fill="#E6330E"/>
<path d="M44.232 70.1273L43.1806 61.6394V61.2956H55.7868L53.4176 71.4193L44.232 70.1273Z" fill="#E6330E"/>
<path d="M77.4422 70.7165L75.6127 61.5271H86.0452L87.6357 69.4787L77.4422 70.7165Z" fill="#E6330E"/>
<path d="M65.5497 9.30859L58.6833 47.1986L41.281 54.0171L65.5497 9.30859ZM65.5497 9.30859L71.9207 41.4223L81.4771 37.1588L65.5497 9.30859ZM43.1806 61.6394L44.232 70.1273L53.4176 71.4193L55.7868 61.2956H43.1806V61.6394ZM75.6127 61.5271L77.4422 70.7165L87.6357 69.4787L86.0452 61.5271H75.6127Z" stroke="#333333" stroke-linecap="round" stroke-linejoin="round"/>
<path d="M58.8613 47.1936L65.5946 9.28027L71.8708 41.4198L58.8613 47.1936Z" fill="#FC2D2D"/>
<path d="M87.665 69.441L86.0856 61.5676H94.8556L87.665 69.441Z" fill="#FC2D2D"/>
<path d="M43.067 61.3253H37.0403L44.1477 70.087L43.067 61.3253Z" fill="#FC2D2D"/>
<path d="M58.8613 47.1936L65.5946 9.28027L71.8708 41.4198L58.8613 47.1936Z" stroke="#333333" stroke-linecap="round" stroke-linejoin="round"/>
<path d="M87.665 69.441L86.0856 61.5676H94.8556L87.665 69.441Z" stroke="#333333" stroke-linecap="round" stroke-linejoin="round"/>
<path d="M43.067 61.3253H37.0403L44.1477 70.087L43.067 61.3253Z" stroke="#333333" stroke-linecap="round" stroke-linejoin="round"/>
</svg>
