<svg width="88" height="88" viewBox="0 0 88 88" fill="none" xmlns="http://www.w3.org/2000/svg">
<path d="M39.9573 73.7348L40.4751 28.9388L48.5885 22.5325C48.7585 22.4006 48.9679 22.3297 49.1831 22.3311H64.9782C65.2325 22.3311 65.4765 22.4322 65.6563 22.612C65.8362 22.7919 65.9372 23.0358 65.9372 23.2902V73.7348" fill="#E6FEFC"/>
<path d="M39.9573 73.7348L40.4751 28.9388L48.5885 22.5325C48.7585 22.4006 48.9679 22.3297 49.1831 22.3311H64.9782C65.2325 22.3311 65.4765 22.4322 65.6563 22.612C65.8362 22.7919 65.9372 23.0358 65.9372 23.2902V73.7348" stroke="#333333" stroke-miterlimit="10" stroke-linecap="round"/>
<path d="M46.0481 73.3042V58.2667C46.0481 58.0124 46.1491 57.7684 46.329 57.5886C46.5088 57.4087 46.7528 57.3077 47.0071 57.3077H56.8467C56.9739 57.3077 57.0958 57.3582 57.1858 57.4481C57.2757 57.538 57.3262 57.66 57.3262 57.7872V73.3042" fill="#0598A8"/>
<path d="M46.0481 73.3042V58.2667C46.0481 58.0124 46.1491 57.7684 46.329 57.5886C46.5088 57.4087 46.7528 57.3077 47.0071 57.3077H56.8467C56.9739 57.3077 57.0958 57.3582 57.1858 57.4481C57.2757 57.538 57.3262 57.66 57.3262 57.7872V73.3042" stroke="#333333" stroke-miterlimit="10" stroke-linecap="round"/>
<path d="M29.179 73.8067V24.1868C29.1777 24.0261 29.2169 23.8676 29.2929 23.7259C29.3689 23.5842 29.4793 23.4639 29.6139 23.3761C29.7486 23.2882 29.9031 23.2356 30.0634 23.2231C30.2237 23.2106 30.3846 23.2386 30.5312 23.3045L50.1624 32.1371C50.3307 32.2128 50.4736 32.3353 50.5739 32.4901C50.6743 32.6449 50.7279 32.8254 50.7282 33.0099V73.4999" fill="#38C1C9"/>
<path d="M29.179 73.8067V24.1868C29.1777 24.0261 29.2169 23.8676 29.2929 23.7259C29.3689 23.5842 29.4793 23.4639 29.6139 23.3761C29.7486 23.2882 29.9031 23.2356 30.0634 23.2231C30.2237 23.2106 30.3846 23.2386 30.5312 23.3045L50.1624 32.1371C50.3307 32.2128 50.4736 32.3353 50.5739 32.4901C50.6743 32.6449 50.7279 32.8254 50.7282 33.0099V73.4999" stroke="#333333" stroke-miterlimit="10" stroke-linecap="round"/>
<path d="M19.752 73.7361V43.642C19.752 43.3876 19.853 43.1437 20.0328 42.9639C20.2127 42.784 20.4566 42.683 20.711 42.683H40.6587C40.7886 42.6765 40.9185 42.6965 41.0404 42.7417C41.1624 42.787 41.2738 42.8566 41.368 42.9463C41.4622 43.036 41.5372 43.144 41.5883 43.2636C41.6395 43.3832 41.6658 43.5119 41.6656 43.642V73.7361" fill="#E6FEFC"/>
<path d="M19.752 73.7361V43.642C19.752 43.3876 19.853 43.1437 20.0328 42.9639C20.2127 42.784 20.4566 42.683 20.711 42.683H40.6587C40.7886 42.6765 40.9185 42.6965 41.0404 42.7417C41.1624 42.787 41.2738 42.8566 41.368 42.9463C41.4622 43.036 41.5372 43.144 41.5883 43.2636C41.6395 43.3832 41.6658 43.5119 41.6656 43.642V73.7361" stroke="#333333" stroke-miterlimit="10" stroke-linecap="round"/>
<path d="M27.7311 46.9291H24.6143V49.1444H27.7311V46.9291Z" fill="#333333"/>
<path d="M32.2658 46.9291H29.1489V49.1444H32.2658V46.9291Z" fill="#333333"/>
<path d="M36.7936 46.9291H33.6768V49.1444H36.7936V46.9291Z" fill="#333333"/>
<path d="M27.7311 50.8822H24.6143V53.0975H27.7311V50.8822Z" fill="#333333"/>
<path d="M32.2658 50.8822H29.1489V53.0975H32.2658V50.8822Z" fill="#333333"/>
<path d="M36.7936 50.8822H33.6768V53.0975H36.7936V50.8822Z" fill="#333333"/>
<path d="M27.7311 54.8262H24.6143V57.0416H27.7311V54.8262Z" fill="#333333"/>
<path d="M32.2658 54.8262H29.1489V57.0416H32.2658V54.8262Z" fill="#333333"/>
<path d="M36.7936 54.8262H33.6768V57.0416H36.7936V54.8262Z" fill="#333333"/>
<path d="M27.7311 58.7758H24.6143V60.9911H27.7311V58.7758Z" fill="#333333"/>
<path d="M32.2658 58.7758H29.1489V60.9912H32.2658V58.7758Z" fill="#333333"/>
<path d="M36.7936 58.7758H33.6768V60.9911H36.7936V58.7758Z" fill="#333333"/>
<path d="M33.3618 35.5499H46.5458V35.9884H33.3618V35.5499Z" fill="black" stroke="#333333"/>
<path d="M33.3618 39.0138H46.5458V39.4523H33.3618V39.0138Z" fill="black" stroke="#333333"/>
<path d="M27.4143 73.3084V65.3389C27.4143 65.2118 27.4648 65.0898 27.5548 64.9999C27.6447 64.91 27.7666 64.8594 27.8938 64.8594H32.8903C33.0167 64.8619 33.1373 64.9132 33.2267 65.0026C33.3161 65.092 33.3674 65.2125 33.3698 65.3389V73.3084" fill="#0598A8"/>
<path d="M27.4143 73.3084V65.3389C27.4143 65.2118 27.4648 65.0898 27.5548 64.9999C27.6447 64.91 27.7666 64.8594 27.8938 64.8594H32.8903C33.0167 64.8619 33.1373 64.9132 33.2267 65.0026C33.3161 65.092 33.3674 65.2125 33.3698 65.3389V73.3084" stroke="#333333" stroke-miterlimit="10" stroke-linecap="round"/>
<path d="M10.8345 73.754H73.1678" stroke="#333333" stroke-miterlimit="10" stroke-linecap="round"/>
<path d="M17.287 66.9547C17.287 67.7788 16.9596 68.5691 16.3769 69.1518C15.7942 69.7345 15.0038 70.0619 14.1797 70.0619C13.3557 70.0619 12.5653 69.7345 11.9826 69.1518C11.3999 68.5691 11.0725 67.7788 11.0725 66.9547C11.0725 65.238 12.4631 62.1595 14.1797 62.1595C15.8964 62.1595 17.287 65.238 17.287 66.9547Z" fill="#FFEF85" stroke="#333333" stroke-miterlimit="10" stroke-linecap="round"/>
<path d="M14.1797 70.1589V73.7553" stroke="#333333" stroke-miterlimit="10" stroke-linecap="round"/>
<path d="M71.1469 57.4903H71.1373C69.6808 57.4903 68.5 58.6711 68.5 60.1276V64.8748C68.5 66.3313 69.6808 67.5121 71.1373 67.5121H71.1469C72.6034 67.5121 73.7842 66.3313 73.7842 64.8748V60.1276C73.7842 58.6711 72.6034 57.4903 71.1469 57.4903Z" fill="#FFEF85" stroke="#333333" stroke-miterlimit="10" stroke-linecap="round"/>
<path d="M71.1372 67.5119V73.736" stroke="#333333" stroke-miterlimit="10" stroke-linecap="round"/>
<path d="M54.5635 41.0727V45.0622" stroke="#333333" stroke-width="1.5" stroke-miterlimit="10" stroke-linecap="square"/>
<path d="M57.8157 41.0726V45.0622" stroke="#333333" stroke-width="1.5" stroke-miterlimit="10" stroke-linecap="square"/>
<path d="M61.0681 41.0727V45.0622" stroke="#333333" stroke-width="1.5" stroke-miterlimit="10" stroke-linecap="square"/>
<path d="M54.5635 49.4838V53.4638" stroke="#333333" stroke-width="1.5" stroke-miterlimit="10" stroke-linecap="square"/>
<path d="M57.8157 49.4838V53.4637" stroke="#333333" stroke-width="1.5" stroke-miterlimit="10" stroke-linecap="square"/>
<path d="M61.0681 49.4838V53.4638" stroke="#333333" stroke-width="1.5" stroke-miterlimit="10" stroke-linecap="square"/>
<path d="M61.0681 57.8828V61.8723" stroke="#333333" stroke-width="1.5" stroke-miterlimit="10" stroke-linecap="square"/>
<path d="M61.0681 66.2953V70.2753" stroke="#333333" stroke-width="1.5" stroke-miterlimit="10" stroke-linecap="square"/>
<path d="M54.5635 32.6733V36.6533" stroke="#333333" stroke-width="1.5" stroke-miterlimit="10" stroke-linecap="square"/>
<path d="M57.8157 32.6733V36.6533" stroke="#333333" stroke-width="1.5" stroke-miterlimit="10" stroke-linecap="square"/>
<path d="M61.0681 32.6733V36.6533" stroke="#333333" stroke-width="1.5" stroke-miterlimit="10" stroke-linecap="square"/>
</svg>
