<svg width="132" height="78" viewBox="0 0 132 78" fill="none" xmlns="http://www.w3.org/2000/svg">
<path d="M43.7219 32.5298L50.4332 46.7367H77.5669L84.2782 32.5298H43.7219Z" fill="#DDDDDD"/>
<path d="M77.5671 47.2214H50.4332C50.3414 47.2214 50.2515 47.1954 50.1739 47.1463C50.0963 47.0972 50.0343 47.027 49.9951 46.9441L43.284 32.7369C43.2491 32.663 43.2335 32.5816 43.2385 32.5001C43.2435 32.4186 43.269 32.3396 43.3127 32.2706C43.3564 32.2016 43.4168 32.1448 43.4884 32.1054C43.5599 32.0661 43.6403 32.0454 43.7219 32.0454H84.2782C84.3598 32.0454 84.4402 32.0661 84.5117 32.1054C84.5833 32.1448 84.6437 32.2016 84.6874 32.2706C84.7311 32.3396 84.7566 32.4186 84.7616 32.5001C84.7666 32.5816 84.751 32.663 84.716 32.7369L78.005 46.9441C77.9658 47.027 77.9038 47.0971 77.8263 47.1462C77.7488 47.1953 77.6589 47.2214 77.5671 47.2214V47.2214ZM50.74 46.2526H77.2596L83.5131 33.0142H44.4865L50.74 46.2526Z" fill="#333333"/>
<path d="M58.3745 49.1574V38.5537H69.6767V49.1586H79.8813C81.7834 49.1695 83.6038 49.9338 84.9436 51.2841C86.2834 52.6343 87.0336 54.4605 87.0297 56.3627V71.0277H40.9705V56.3027C40.9771 54.4024 41.7375 52.5825 43.0846 51.2423C44.4318 49.902 46.2557 49.1511 48.1559 49.1543L58.3745 49.1574Z" fill="#DDDDDD"/>
<path d="M58.3745 46.59L63.9729 53.5536L69.6767 46.59V38.5527H58.3745V46.59Z" fill="#FF9F70"/>
<path d="M87.0297 71.5106H40.9705C40.842 71.5106 40.7188 71.4596 40.628 71.3687C40.5371 71.2779 40.4861 71.1547 40.4861 71.0262V56.3027C40.4934 54.2757 41.3037 52.3343 42.7396 50.9037C44.1754 49.4731 46.1198 48.6698 48.1467 48.6699H48.1566L57.8899 48.673V38.5537C57.8899 38.4252 57.941 38.302 58.0318 38.2112C58.1226 38.1204 58.2458 38.0693 58.3743 38.0693H69.6765C69.8049 38.0693 69.9281 38.1204 70.019 38.2112C70.1098 38.302 70.1608 38.4252 70.1608 38.5537V48.6742H79.8813C80.8871 48.6738 81.883 48.8738 82.8107 49.2627C83.7383 49.6516 84.5792 50.2215 85.284 50.9392C85.9944 51.6522 86.5571 52.4985 86.9397 53.4294C87.3224 54.3603 87.5176 55.3577 87.5141 56.3642V71.0262C87.5141 71.1547 87.463 71.2779 87.3722 71.3687C87.2813 71.4596 87.1581 71.5106 87.0297 71.5106V71.5106ZM41.4548 70.5418H86.5453V56.3615C86.5482 55.4818 86.3775 54.6101 86.0429 53.7964C85.7083 52.9828 85.2164 52.2432 84.5955 51.62C83.9805 50.9935 83.2467 50.4958 82.4372 50.1562C81.6276 49.8166 80.7585 49.6418 79.8805 49.642H69.6765C69.548 49.642 69.4248 49.591 69.334 49.5002C69.2431 49.4093 69.1921 49.2861 69.1921 49.1576V39.0381H58.8587V49.1586C58.8587 49.2871 58.8076 49.4103 58.7168 49.5011C58.626 49.592 58.5028 49.643 58.3743 49.643L48.1559 49.6396H48.1472C46.3771 49.6389 44.6788 50.3399 43.4244 51.5888C42.1701 52.8378 41.4618 54.533 41.4548 56.3031V70.5418Z" fill="#333333"/>
<path d="M43.4812 62.7939C43.3527 62.7939 43.2295 62.7429 43.1387 62.6521C43.0479 62.5612 42.9968 62.438 42.9968 62.3096V59.4033C42.9968 59.2749 43.0479 59.1517 43.1387 59.0608C43.2295 58.97 43.3527 58.9189 43.4812 58.9189C43.6097 58.9189 43.7329 58.97 43.8237 59.0608C43.9145 59.1517 43.9656 59.2749 43.9656 59.4033V62.3096C43.9656 62.438 43.9145 62.5612 43.8237 62.6521C43.7329 62.7429 43.6097 62.7939 43.4812 62.7939Z" fill="#333333"/>
<path d="M52.813 28.8447H52.0138C51.0212 28.8447 50.0693 29.239 49.3674 29.9409C48.6655 30.6427 48.2712 31.5947 48.2712 32.5873C48.2712 33.5798 48.6655 34.5318 49.3674 35.2336C50.0693 35.9355 51.0212 36.3298 52.0138 36.3298H52.813V28.8447Z" fill="#FFDE99"/>
<path d="M76.0104 28.8447H75.2112V36.3283H76.0104C77.003 36.3283 77.9549 35.934 78.6568 35.2321C79.3586 34.5303 79.7529 33.5784 79.7529 32.5858C79.7529 31.5932 79.3586 30.6413 78.6568 29.9394C77.9549 29.2376 77.003 28.8433 76.0104 28.8433V28.8447Z" fill="#FFDE99"/>
<path d="M64.012 47.7937C57.827 47.7937 52.813 42.7146 52.813 36.4494V28.5955C52.813 22.3301 57.8263 17.251 64.012 17.251C70.197 17.251 75.211 22.3301 75.211 28.5955V36.4494C75.211 42.7146 70.197 47.7937 64.012 47.7937V47.7937Z" fill="#FFDE99"/>
<path d="M64.012 48.2781C57.5698 48.2781 52.3286 42.9718 52.3286 36.4494V28.5955C52.3286 22.0732 57.5698 16.7666 64.012 16.7666C70.4542 16.7666 75.6954 22.0732 75.6954 28.5955V36.4494C75.6954 42.9718 70.4542 48.2781 64.012 48.2781V48.2781ZM64.012 17.7354C58.1026 17.7354 53.2974 22.6074 53.2974 28.5955V36.4494C53.2974 42.4378 58.1038 47.3094 64.012 47.3094C69.9202 47.3094 74.7266 42.4378 74.7266 36.4494V28.5955C74.7266 22.6074 69.9199 17.7354 64.012 17.7354V17.7354Z" fill="#333333"/>
<path d="M52.813 36.7375H52.0138C50.8927 36.7375 49.8176 36.2922 49.0249 35.4995C48.2322 34.7068 47.7869 33.6316 47.7869 32.5106C47.7869 31.3895 48.2322 30.3144 49.0249 29.5217C49.8176 28.729 50.8927 28.2837 52.0138 28.2837H52.813C52.9414 28.2837 53.0646 28.3347 53.1555 28.4256C53.2463 28.5164 53.2974 28.6396 53.2974 28.7681V36.2531C53.2974 36.3816 53.2463 36.5048 53.1555 36.5956C53.0646 36.6865 52.9414 36.7375 52.813 36.7375ZM52.0133 29.2539C51.1492 29.2539 50.3204 29.5972 49.7094 30.2082C49.0984 30.8192 48.7551 31.6479 48.7551 32.512C48.7551 33.3762 49.0984 34.2049 49.7094 34.8159C50.3204 35.4269 51.1492 35.7702 52.0133 35.7702H52.3281V29.2539H52.0133Z" fill="#333333"/>
<path d="M76.0104 36.7375H75.2112C75.0827 36.7375 74.9595 36.6865 74.8687 36.5956C74.7778 36.5048 74.7268 36.3816 74.7268 36.2531V28.7695C74.7268 28.6411 74.7778 28.5179 74.8687 28.427C74.9595 28.3362 75.0827 28.2852 75.2112 28.2852H76.0104C77.1314 28.2852 78.2066 28.7305 78.9993 29.5232C79.792 30.3159 80.2373 31.391 80.2373 32.5121C80.2373 33.6331 79.792 34.7082 78.9993 35.5009C78.2066 36.2936 77.1314 36.739 76.0104 36.739V36.7375ZM75.6956 35.7688H76.0104C76.8745 35.7688 77.7032 35.4255 78.3143 34.8145C78.9253 34.2034 79.2686 33.3747 79.2686 32.5106C79.2686 31.6465 78.9253 30.8178 78.3143 30.2067C77.7032 29.5957 76.8745 29.2525 76.0104 29.2525H75.6956V35.7688Z" fill="#333333"/>
<path d="M64 32.5298H43.7219L53.8611 19.6902L58.7329 13.5205C59.3611 12.7248 60.1614 12.0817 61.0738 11.6396C61.9861 11.1975 62.9867 10.9678 64.0005 10.9678C65.0143 10.9678 66.015 11.1975 66.9273 11.6396C67.8396 12.0817 68.6399 12.7248 69.2681 13.5205L74.1402 19.6902L84.2794 32.5298H64Z" fill="#EEEEEE"/>
<path d="M84.2782 33.0141H43.7219C43.6309 33.0142 43.5418 32.9886 43.4647 32.9403C43.3875 32.892 43.3256 32.823 43.2859 32.7411C43.2462 32.6592 43.2303 32.5679 43.2401 32.4774C43.25 32.3869 43.2851 32.3011 43.3414 32.2297L58.353 13.2211C59.0265 12.3681 59.8844 11.6789 60.8624 11.205C61.8405 10.7311 62.9131 10.4849 63.9999 10.4849C65.0867 10.4849 66.1594 10.7311 67.1374 11.205C68.1154 11.6789 68.9734 12.3681 69.6469 13.2211L84.6586 32.2297C84.715 32.3011 84.7501 32.3869 84.7599 32.4773C84.7698 32.5677 84.754 32.659 84.7143 32.7409C84.6747 32.8227 84.6128 32.8918 84.5357 32.9401C84.4587 32.9884 84.3696 33.0141 84.2787 33.0141H84.2782ZM44.7217 32.0454H83.2782L68.8867 13.8207C68.3038 13.0827 67.5613 12.4863 66.7149 12.0762C65.8685 11.6661 64.9403 11.4531 63.9998 11.4531C63.0593 11.4531 62.1311 11.6661 61.2847 12.0762C60.4383 12.4863 59.6958 13.0827 59.1129 13.8207L44.7217 32.0454Z" fill="#333333"/>
<path d="M47.5843 45.3945H80.4157C81.009 45.3945 81.578 45.6302 81.9975 46.0498C82.4171 46.4693 82.6528 47.0383 82.6528 47.6316V71.031H45.3472V47.6316C45.3472 47.3378 45.405 47.0469 45.5175 46.7755C45.6299 46.5041 45.7947 46.2575 46.0024 46.0498C46.2101 45.842 46.4567 45.6772 46.7282 45.5648C46.9996 45.4524 47.2905 45.3945 47.5843 45.3945V45.3945Z" fill="#666666"/>
<path d="M82.6528 71.5154H45.3472C45.2187 71.5154 45.0955 71.4644 45.0047 71.3736C44.9138 71.2827 44.8628 71.1595 44.8628 71.031V47.6316C44.8636 46.9101 45.1506 46.2184 45.6608 45.7082C46.171 45.198 46.8627 44.911 47.5843 44.9102H80.4157C81.1372 44.911 81.8289 45.198 82.3391 45.7082C82.8493 46.2184 83.1363 46.9101 83.1371 47.6316V71.031C83.1371 71.1595 83.0861 71.2827 82.9953 71.3736C82.9044 71.4644 82.7812 71.5154 82.6528 71.5154ZM45.8315 70.5467H82.1684V47.6316C82.1678 47.1669 81.983 46.7215 81.6544 46.3929C81.3258 46.0643 80.8803 45.8795 80.4157 45.8789H47.5843C47.1196 45.8795 46.6741 46.0643 46.3455 46.3929C46.017 46.7215 45.8321 47.1669 45.8315 47.6316V70.5467Z" fill="#333333"/>
<path d="M64.002 53.0942L69.1619 58.2541L64.002 63.4141L58.842 58.2541L64.002 53.0942Z" fill="#38C1C9"/>
<path d="M64 63.9076C63.9364 63.9077 63.8734 63.8953 63.8146 63.8709C63.7558 63.8466 63.7025 63.8108 63.6576 63.7657L58.4968 58.6049C58.406 58.5141 58.355 58.3909 58.355 58.2625C58.355 58.134 58.406 58.0109 58.4968 57.92L63.6576 52.7595C63.7484 52.6687 63.8716 52.6177 64 52.6177C64.1285 52.6177 64.2516 52.6687 64.3425 52.7595L69.5033 57.92C69.5941 58.0109 69.6451 58.134 69.6451 58.2625C69.6451 58.3909 69.5941 58.5141 69.5033 58.6049L64.3425 63.7657C64.2976 63.8108 64.2442 63.8465 64.1854 63.8709C64.1267 63.8952 64.0636 63.9077 64 63.9076V63.9076ZM59.5244 58.2625L64 62.7383L68.4756 58.2625L64 53.7876L59.5244 58.2625Z" fill="#333333"/>
</svg>
