<?xml version="1.0" encoding="UTF-8"?>
<svg xmlns="http://www.w3.org/2000/svg" xmlns:xlink="http://www.w3.org/1999/xlink" viewBox="0 0 24 24" width="24px" height="24px">
<g id="surface108308798">
<path style=" stroke:none;fill-rule:nonzero;fill:rgb(100%,100%,100%);fill-opacity:1;" d="M 3.839844 1.445312 C 3.03125 1.445312 2.320312 1.675781 1.800781 2.09375 C 1.28125 2.515625 0.964844 3.136719 0.964844 3.816406 C 0.964844 5.132812 2.144531 6.152344 3.703125 6.210938 C 3.746094 6.226562 3.792969 6.234375 3.839844 6.234375 C 4.683594 6.234375 5.398438 5.988281 5.910156 5.550781 C 6.421875 5.113281 6.714844 4.484375 6.714844 3.816406 C 6.714844 3.804688 6.714844 3.796875 6.714844 3.789062 C 6.640625 2.464844 5.460938 1.445312 3.839844 1.445312 Z M 3.839844 2.394531 C 5.09375 2.394531 5.710938 3.007812 5.761719 3.828125 C 5.757812 4.226562 5.605469 4.566406 5.296875 4.828125 C 4.980469 5.097656 4.5 5.285156 3.839844 5.285156 C 2.589844 5.285156 1.914062 4.609375 1.914062 3.816406 C 1.914062 3.417969 2.078125 3.09375 2.398438 2.832031 C 2.71875 2.574219 3.210938 2.394531 3.839844 2.394531 Z M 1.441406 7.199219 C 1.175781 7.199219 0.960938 7.414062 0.960938 7.679688 L 0.960938 21.601562 C 0.960938 21.863281 1.175781 22.078125 1.441406 22.078125 L 6.238281 22.078125 C 6.503906 22.078125 6.71875 21.863281 6.71875 21.601562 L 6.71875 7.679688 C 6.71875 7.414062 6.503906 7.199219 6.238281 7.199219 Z M 8.640625 7.199219 C 8.375 7.199219 8.160156 7.414062 8.160156 7.679688 L 8.160156 21.601562 C 8.160156 21.863281 8.375 22.078125 8.640625 22.078125 L 13.441406 22.078125 C 13.707031 22.078125 13.921875 21.863281 13.921875 21.601562 L 13.921875 13.679688 C 13.921875 12.746094 14.667969 12 15.601562 12 C 16.535156 12 17.28125 12.746094 17.28125 13.679688 L 17.28125 21.601562 C 17.28125 21.863281 17.496094 22.078125 17.761719 22.078125 L 22.558594 22.078125 C 22.824219 22.078125 23.039062 21.863281 23.039062 21.601562 L 23.039062 13.441406 C 23.039062 11.460938 22.457031 9.890625 21.476562 8.820312 C 20.496094 7.75 19.128906 7.199219 17.65625 7.199219 C 15.785156 7.199219 14.648438 7.882812 13.921875 8.449219 L 13.921875 7.679688 C 13.921875 7.414062 13.707031 7.199219 13.441406 7.199219 Z M 1.921875 8.160156 L 5.761719 8.160156 L 5.761719 21.121094 L 1.921875 21.121094 Z M 9.121094 8.160156 L 12.960938 8.160156 L 12.960938 9.425781 C 12.960938 9.625 13.082031 9.804688 13.269531 9.875 C 13.453125 9.945312 13.664062 9.894531 13.796875 9.746094 C 13.796875 9.746094 15.222656 8.160156 17.65625 8.160156 C 18.894531 8.160156 19.976562 8.601562 20.769531 9.46875 C 21.5625 10.335938 22.078125 11.644531 22.078125 13.441406 L 22.078125 21.121094 L 18.238281 21.121094 L 18.238281 13.679688 C 18.242188 13.613281 18.226562 13.546875 18.199219 13.484375 C 18.09375 12.125 16.984375 11.039062 15.601562 11.039062 C 14.148438 11.039062 12.960938 12.226562 12.960938 13.679688 L 12.960938 21.121094 L 9.121094 21.121094 Z M 9.121094 8.160156 "/>
</g>
</svg>
