<?xml version="1.0" encoding="UTF-8"?>
<svg xmlns="http://www.w3.org/2000/svg" xmlns:xlink="http://www.w3.org/1999/xlink" viewBox="0 0 24 24" width="24px" height="24px">
<g id="surface107997439">
<path style=" stroke:none;fill-rule:nonzero;fill:rgb(100%,100%,100%);fill-opacity:1;" d="M 7.679688 1.441406 C 4.238281 1.441406 1.441406 4.238281 1.441406 7.679688 L 1.441406 16.320312 C 1.441406 19.761719 4.238281 22.558594 7.679688 22.558594 L 16.320312 22.558594 C 19.761719 22.558594 22.558594 19.761719 22.558594 16.320312 L 22.558594 7.679688 C 22.558594 4.238281 19.761719 1.441406 16.320312 1.441406 Z M 7.679688 2.398438 L 16.320312 2.398438 C 19.242188 2.398438 21.601562 4.757812 21.601562 7.679688 L 21.601562 16.320312 C 21.601562 19.242188 19.242188 21.601562 16.320312 21.601562 L 7.679688 21.601562 C 4.757812 21.601562 2.398438 19.242188 2.398438 16.320312 L 2.398438 7.679688 C 2.398438 4.757812 4.757812 2.398438 7.679688 2.398438 Z M 17.761719 5.28125 C 17.230469 5.28125 16.800781 5.710938 16.800781 6.238281 C 16.800781 6.769531 17.230469 7.199219 17.761719 7.199219 C 18.289062 7.199219 18.71875 6.769531 18.71875 6.238281 C 18.71875 5.710938 18.289062 5.28125 17.761719 5.28125 Z M 12 6.71875 C 9.089844 6.71875 6.71875 9.089844 6.71875 12 C 6.71875 14.910156 9.089844 17.28125 12 17.28125 C 14.910156 17.28125 17.28125 14.910156 17.28125 12 C 17.28125 9.089844 14.910156 6.71875 12 6.71875 Z M 12 7.679688 C 14.390625 7.679688 16.320312 9.609375 16.320312 12 C 16.320312 14.390625 14.390625 16.320312 12 16.320312 C 9.609375 16.320312 7.679688 14.390625 7.679688 12 C 7.679688 9.609375 9.609375 7.679688 12 7.679688 Z M 12 7.679688 "/>
</g>
</svg>
