<svg width="88" height="88" viewBox="0 0 88 88" fill="none" xmlns="http://www.w3.org/2000/svg">
<path d="M43.2712 18.0878C43.3374 18.0311 43.4217 18 43.5089 18C43.596 18 43.6803 18.0311 43.7466 18.0878C44.4779 18.7734 47.1016 20.7206 53.7294 21.6165C60.3571 22.5124 64.5989 20.6018 65.9062 19.8887C65.9588 19.8612 66.0174 19.8472 66.0767 19.8481C66.1361 19.849 66.1943 19.8647 66.246 19.8937C66.2978 19.9228 66.3415 19.9643 66.3731 20.0145C66.4048 20.0647 66.4234 20.122 66.4273 20.1812C66.8295 23.0792 68.4202 37.0386 63.5842 49.124C58.7482 61.2094 49.1311 67.5995 43.6643 70.534C43.617 70.5613 43.5634 70.5757 43.5089 70.5757C43.4543 70.5757 43.4007 70.5613 43.3535 70.534C37.8867 67.5995 28.2421 61.1089 23.397 49.124C18.5519 37.1392 20.1883 23.0792 20.5905 20.1812C20.5944 20.122 20.613 20.0647 20.6446 20.0145C20.6763 19.9643 20.72 19.9228 20.7717 19.8937C20.8235 19.8647 20.8817 19.849 20.941 19.8481C21.0004 19.8472 21.059 19.8612 21.1116 19.8887C22.4189 20.6018 26.6423 22.5033 33.2884 21.6165C39.9345 20.7298 42.5399 18.7734 43.2712 18.0878Z" fill="#B5F3F2" stroke="#333333" stroke-miterlimit="10" stroke-linecap="round"/>
<path d="M55.9401 41.3682C56.0061 34.497 50.4894 28.8734 43.6182 28.8074C36.747 28.7414 31.1234 34.2582 31.0574 41.1293C30.9915 48.0005 36.5082 53.6242 43.3793 53.6901C50.2505 53.7561 55.8742 48.2394 55.9401 41.3682Z" fill="#38C1C9" stroke="#333333" stroke-miterlimit="10" stroke-linecap="round"/>
<path d="M51.6591 41.3949C51.7424 36.8921 48.1597 33.1743 43.6569 33.091C39.1541 33.0077 35.4363 36.5904 35.353 41.0932C35.2697 45.596 38.8524 49.3138 43.3552 49.3971C47.858 49.4804 51.5758 45.8977 51.6591 41.3949Z" fill="#FFEF85" stroke="#333333" stroke-miterlimit="10" stroke-linecap="round"/>
<path d="M40.1118 41.2513L41.9402 43.5039C42.0014 43.5638 42.0812 43.5969 42.1639 43.5969C42.2467 43.5969 42.3265 43.5638 42.3877 43.5039L47.4252 39.0261" stroke="#333333" stroke-width="1.5" stroke-miterlimit="10" stroke-linecap="round"/>
</svg>
