<svg width="132" height="78" viewBox="0 0 132 78" fill="none" xmlns="http://www.w3.org/2000/svg">
<rect x="44" y="22.7744" width="38.0383" height="49.2261" rx="2" fill="#DEFEFC" stroke="#333333" stroke-linecap="round" stroke-linejoin="round"/>
<path fill-rule="evenodd" clip-rule="evenodd" d="M68.6121 23.8909C69.5498 22.7632 70.1136 21.3138 70.1136 19.7326C70.1136 16.1383 67.1999 13.2246 63.6056 13.2246C60.0114 13.2246 57.0977 16.1383 57.0977 19.7326C57.0977 21.3909 57.7179 22.9044 58.7391 24.0537C59.2468 24.7603 59.9899 26.1626 59.9899 27.6862C59.9899 27.6863 59.9899 27.6863 59.9899 27.6864H59.9899V29.1326H67.221V27.6864H67.2204C67.2206 27.6863 67.2208 27.6862 67.221 27.6862C67.221 26.2853 68.0353 24.8358 68.6121 23.8909Z" fill="#FFEF85"/>
<path d="M68.6121 23.8909L68.2277 23.5712L68.2044 23.5992L68.1854 23.6303L68.6121 23.8909ZM58.7391 24.0537L59.1452 23.762L59.1301 23.7409L59.1129 23.7216L58.7391 24.0537ZM59.9899 27.6864V28.1864H60.4899V27.6864H59.9899ZM59.9899 27.6864V27.1864H59.4899V27.6864H59.9899ZM59.9899 29.1326H59.4899V29.6326H59.9899V29.1326ZM67.221 29.1326V29.6326H67.721V29.1326H67.221ZM67.221 27.6864H67.721V27.1864H67.221V27.6864ZM67.2204 27.6864L67.0771 27.2073L67.2204 28.1864V27.6864ZM67.221 27.6862L67.3643 28.1652L67.721 28.0585V27.6862H67.221ZM68.9966 24.2105C70.0061 22.9964 70.6136 21.4348 70.6136 19.7326H69.6136C69.6136 21.1927 69.0934 22.53 68.2277 23.5712L68.9966 24.2105ZM70.6136 19.7326C70.6136 15.8622 67.476 12.7246 63.6056 12.7246V13.7246C66.9238 13.7246 69.6136 16.4145 69.6136 19.7326H70.6136ZM63.6056 12.7246C59.7352 12.7246 56.5977 15.8622 56.5977 19.7326H57.5977C57.5977 16.4145 60.2875 13.7246 63.6056 13.7246V12.7246ZM56.5977 19.7326C56.5977 21.518 57.266 23.1486 58.3654 24.3858L59.1129 23.7216C58.1699 22.6603 57.5977 21.2639 57.5977 19.7326H56.5977ZM60.4899 27.6862C60.4899 26.0166 59.6844 24.5125 59.1452 23.762L58.333 24.3454C58.8091 25.0082 59.4899 26.3085 59.4899 27.6862H60.4899ZM60.4899 27.6864C60.4899 27.6864 60.4899 27.6864 60.4899 27.6864C60.4899 27.6864 60.4899 27.6864 60.4899 27.6864C60.4899 27.6864 60.4899 27.6864 60.4899 27.6864C60.4899 27.6864 60.4899 27.6864 60.4899 27.6864C60.4899 27.6864 60.4899 27.6864 60.4899 27.6864C60.4899 27.6864 60.4899 27.6864 60.4899 27.6864C60.4899 27.6864 60.4899 27.6864 60.4899 27.6864C60.4899 27.6864 60.4899 27.6864 60.4899 27.6864C60.4899 27.6864 60.4899 27.6864 60.4899 27.6864C60.4899 27.6864 60.4899 27.6864 60.4899 27.6864C60.4899 27.6864 60.4899 27.6864 60.4899 27.6864C60.4899 27.6864 60.4899 27.6864 60.4899 27.6864C60.4899 27.6864 60.4899 27.6864 60.4899 27.6864C60.4899 27.6864 60.4899 27.6864 60.4899 27.6864C60.4899 27.6864 60.4899 27.6864 60.4899 27.6864C60.4899 27.6864 60.4899 27.6864 60.4899 27.6864C60.4899 27.6864 60.4899 27.6864 60.4899 27.6864C60.4899 27.6864 60.4899 27.6864 60.4899 27.6864C60.4899 27.6864 60.4899 27.6864 60.4899 27.6864C60.4899 27.6864 60.4899 27.6864 60.4899 27.6864C60.4899 27.6864 60.4899 27.6864 60.4899 27.6864C60.4899 27.6864 60.4899 27.6864 60.4899 27.6864C60.4899 27.6864 60.4899 27.6864 60.4899 27.6864C60.4899 27.6864 60.4899 27.6864 60.4899 27.6864C60.4899 27.6864 60.4899 27.6864 60.4899 27.6864C60.4899 27.6864 60.4899 27.6864 60.4899 27.6864C60.4899 27.6864 60.4899 27.6864 60.4899 27.6864C60.4899 27.6864 60.4899 27.6864 60.4899 27.6864C60.4899 27.6864 60.4899 27.6864 60.4899 27.6864C60.4899 27.6864 60.4899 27.6864 60.4899 27.6864C60.4899 27.6864 60.4899 27.6864 60.4899 27.6864C60.4899 27.6864 60.4899 27.6864 60.4899 27.6864C60.4899 27.6864 60.4899 27.6864 60.4899 27.6864C60.4899 27.6864 60.4899 27.6864 60.4899 27.6864C60.4899 27.6864 60.4899 27.6864 60.4899 27.6864C60.4899 27.6864 60.4899 27.6864 60.4899 27.6864C60.4899 27.6864 60.4899 27.6864 60.4899 27.6864C60.4899 27.6864 60.4899 27.6864 60.4899 27.6864C60.4899 27.6864 60.4899 27.6864 60.4899 27.6864C60.4899 27.6864 60.4899 27.6864 60.4899 27.6864C60.4899 27.6864 60.4899 27.6864 60.4899 27.6864C60.4899 27.6864 60.4899 27.6864 60.4899 27.6864C60.4899 27.6864 60.4899 27.6864 60.4899 27.6864C60.4899 27.6864 60.4899 27.6864 60.4899 27.6864C60.4899 27.6864 60.4899 27.6864 60.4899 27.6864C60.4899 27.6864 60.4899 27.6864 60.4899 27.6864C60.4899 27.6864 60.4899 27.6864 60.4899 27.6864C60.4899 27.6864 60.4899 27.6864 60.4899 27.6864C60.4899 27.6864 60.4899 27.6864 60.4899 27.6864C60.4899 27.6864 60.4899 27.6864 60.4899 27.6863C60.4899 27.6863 60.4899 27.6863 60.4899 27.6863C60.4899 27.6863 60.4899 27.6863 60.4899 27.6863C60.4899 27.6863 60.4899 27.6863 60.4899 27.6863C60.4899 27.6863 60.4899 27.6863 60.4899 27.6863C60.4899 27.6863 60.4899 27.6863 60.4899 27.6863C60.4899 27.6863 60.4899 27.6863 60.4899 27.6863C60.4899 27.6863 60.4899 27.6863 60.4899 27.6863C60.4899 27.6863 60.4899 27.6863 60.4899 27.6863C60.4899 27.6863 60.4899 27.6863 60.4899 27.6863C60.4899 27.6863 60.4899 27.6863 60.4899 27.6863C60.4899 27.6863 60.4899 27.6863 60.4899 27.6863C60.4899 27.6863 60.4899 27.6863 60.4899 27.6863C60.4899 27.6863 60.4899 27.6863 60.4899 27.6863C60.4899 27.6863 60.4899 27.6863 60.4899 27.6863C60.4899 27.6863 60.4899 27.6863 60.4899 27.6863C60.4899 27.6863 60.4899 27.6863 60.4899 27.6863C60.4899 27.6863 60.4899 27.6863 60.4899 27.6863C60.4899 27.6863 60.4899 27.6863 60.4899 27.6863C60.4899 27.6863 60.4899 27.6863 60.4899 27.6863C60.4899 27.6863 60.4899 27.6863 60.4899 27.6863C60.4899 27.6863 60.4899 27.6863 60.4899 27.6863C60.4899 27.6863 60.4899 27.6863 60.4899 27.6863C60.4899 27.6863 60.4899 27.6863 60.4899 27.6863C60.4899 27.6863 60.4899 27.6863 60.4899 27.6863C60.4899 27.6863 60.4899 27.6863 60.4899 27.6863C60.4899 27.6863 60.4899 27.6863 60.4899 27.6863C60.4899 27.6863 60.4899 27.6863 60.4899 27.6863C60.4899 27.6863 60.4899 27.6863 60.4899 27.6863C60.4899 27.6863 60.4899 27.6863 60.4899 27.6863C60.4899 27.6863 60.4899 27.6863 60.4899 27.6863C60.4899 27.6863 60.4899 27.6863 60.4899 27.6863C60.4899 27.6863 60.4899 27.6863 60.4899 27.6863C60.4899 27.6863 60.4899 27.6863 60.4899 27.6863C60.4899 27.6863 60.4899 27.6863 60.4899 27.6863C60.4899 27.6863 60.4899 27.6863 60.4899 27.6863C60.4899 27.6863 60.4899 27.6863 60.4899 27.6863C60.4899 27.6863 60.4899 27.6863 60.4899 27.6863C60.4899 27.6863 60.4899 27.6863 60.4899 27.6863C60.4899 27.6863 60.4899 27.6863 60.4899 27.6863C60.4899 27.6863 60.4899 27.6863 60.4899 27.6863C60.4899 27.6863 60.4899 27.6863 60.4899 27.6863C60.4899 27.6863 60.4899 27.6863 60.4899 27.6863C60.4899 27.6863 60.4899 27.6863 60.4899 27.6863C60.4899 27.6863 60.4899 27.6863 60.4899 27.6863C60.4899 27.6863 60.4899 27.6863 60.4899 27.6863C60.4899 27.6863 60.4899 27.6863 60.4899 27.6863C60.4899 27.6863 60.4899 27.6863 60.4899 27.6863C60.4899 27.6863 60.4899 27.6863 60.4899 27.6863C60.4899 27.6863 60.4899 27.6863 60.4899 27.6863C60.4899 27.6863 60.4899 27.6863 60.4899 27.6863C60.4899 27.6863 60.4899 27.6863 60.4899 27.6863C60.4899 27.6863 60.4899 27.6863 60.4899 27.6863C60.4899 27.6863 60.4899 27.6863 60.4899 27.6863C60.4899 27.6863 60.4899 27.6863 60.4899 27.6863C60.4899 27.6863 60.4899 27.6863 60.4899 27.6863C60.4899 27.6863 60.4899 27.6863 60.4899 27.6863C60.4899 27.6863 60.4899 27.6863 60.4899 27.6863C60.4899 27.6863 60.4899 27.6863 60.4899 27.6863C60.4899 27.6863 60.4899 27.6863 60.4899 27.6863C60.4899 27.6863 60.4899 27.6863 60.4899 27.6863C60.4899 27.6863 60.4899 27.6863 60.4899 27.6863C60.4899 27.6863 60.4899 27.6863 60.4899 27.6863C60.4899 27.6863 60.4899 27.6863 60.4899 27.6863C60.4899 27.6863 60.4899 27.6863 60.4899 27.6863C60.4899 27.6863 60.4899 27.6863 60.4899 27.6863C60.4899 27.6863 60.4899 27.6863 60.4899 27.6863C60.4899 27.6863 60.4899 27.6863 60.4899 27.6863C60.4899 27.6863 60.4899 27.6863 60.4899 27.6863C60.4899 27.6863 60.4899 27.6863 60.4899 27.6863C60.4899 27.6863 60.4899 27.6863 60.4899 27.6863C60.4899 27.6863 60.4899 27.6863 60.4899 27.6863C60.4899 27.6863 60.4899 27.6863 60.4899 27.6863C60.4899 27.6863 60.4899 27.6863 60.4899 27.6863C60.4899 27.6863 60.4899 27.6863 60.4899 27.6863C60.4899 27.6863 60.4899 27.6863 60.4899 27.6863C60.4899 27.6863 60.4899 27.6863 60.4899 27.6863C60.4899 27.6863 60.4899 27.6863 60.4899 27.6863C60.4899 27.6863 60.4899 27.6863 60.4899 27.6863C60.4899 27.6863 60.4899 27.6863 60.4899 27.6863C60.4899 27.6863 60.4899 27.6863 60.4899 27.6863C60.4899 27.6863 60.4899 27.6863 60.4899 27.6863C60.4899 27.6863 60.4899 27.6863 60.4899 27.6863C60.4899 27.6863 60.4899 27.6863 60.4899 27.6863C60.4899 27.6863 60.4899 27.6863 60.4899 27.6863C60.4899 27.6863 60.4899 27.6863 60.4899 27.6863C60.4899 27.6863 60.4899 27.6863 60.4899 27.6863C60.4899 27.6863 60.4899 27.6863 60.4899 27.6863C60.4899 27.6863 60.4899 27.6863 60.4899 27.6863C60.4899 27.6863 60.4899 27.6863 60.4899 27.6863C60.4899 27.6863 60.4899 27.6863 60.4899 27.6863C60.4899 27.6863 60.4899 27.6863 60.4899 27.6863C60.4899 27.6863 60.4899 27.6863 60.4899 27.6863C60.4899 27.6863 60.4899 27.6863 60.4899 27.6863C60.4899 27.6863 60.4899 27.6863 60.4899 27.6863C60.4899 27.6863 60.4899 27.6863 60.4899 27.6863C60.4899 27.6863 60.4899 27.6863 60.4899 27.6863C60.4899 27.6863 60.4899 27.6863 60.4899 27.6863C60.4899 27.6863 60.4899 27.6863 60.4899 27.6863C60.4899 27.6863 60.4899 27.6863 60.4899 27.6863C60.4899 27.6863 60.4899 27.6863 60.4899 27.6863C60.4899 27.6863 60.4899 27.6863 60.4899 27.6863C60.4899 27.6863 60.4899 27.6863 60.4899 27.6863C60.4899 27.6863 60.4899 27.6863 60.4899 27.6863C60.4899 27.6863 60.4899 27.6863 60.4899 27.6863C60.4899 27.6863 60.4899 27.6863 60.4899 27.6863C60.4899 27.6863 60.4899 27.6863 60.4899 27.6863C60.4899 27.6863 60.4899 27.6863 60.4899 27.6863C60.4899 27.6863 60.4899 27.6863 60.4899 27.6863C60.4899 27.6863 60.4899 27.6863 60.4899 27.6863C60.4899 27.6863 60.4899 27.6863 60.4899 27.6863C60.4899 27.6863 60.4899 27.6863 60.4899 27.6863C60.4899 27.6863 60.4899 27.6863 60.4899 27.6863C60.4899 27.6863 60.4899 27.6863 60.4899 27.6863C60.4899 27.6863 60.4899 27.6863 60.4899 27.6863C60.4899 27.6863 60.4899 27.6863 60.4899 27.6863C60.4899 27.6863 60.4899 27.6863 60.4899 27.6863C60.4899 27.6863 60.4899 27.6863 60.4899 27.6863C60.4899 27.6863 60.4899 27.6863 60.4899 27.6863C60.4899 27.6863 60.4899 27.6863 60.4899 27.6863C60.4899 27.6863 60.4899 27.6863 60.4899 27.6863C60.4899 27.6863 60.4899 27.6863 60.4899 27.6863C60.4899 27.6863 60.4899 27.6863 60.4899 27.6863C60.4899 27.6863 60.4899 27.6863 60.4899 27.6863C60.4899 27.6863 60.4899 27.6863 60.4899 27.6863C60.4899 27.6863 60.4899 27.6863 60.4899 27.6863C60.4899 27.6863 60.4899 27.6863 60.4899 27.6863C60.4899 27.6863 60.4899 27.6863 60.4899 27.6863C60.4899 27.6863 60.4899 27.6863 60.4899 27.6863C60.4899 27.6863 60.4899 27.6863 60.4899 27.6863C60.4899 27.6863 60.4899 27.6863 60.4899 27.6863C60.4899 27.6863 60.4899 27.6863 60.4899 27.6863C60.4899 27.6863 60.4899 27.6863 60.4899 27.6863C60.4899 27.6863 60.4899 27.6863 60.4899 27.6863C60.4899 27.6863 60.4899 27.6863 60.4899 27.6863C60.4899 27.6863 60.4899 27.6863 60.4899 27.6863C60.4899 27.6863 60.4899 27.6863 60.4899 27.6863C60.4899 27.6863 60.4899 27.6863 60.4899 27.6863C60.4899 27.6863 60.4899 27.6863 60.4899 27.6863C60.4899 27.6863 60.4899 27.6863 60.4899 27.6863C60.4899 27.6863 60.4899 27.6863 60.4899 27.6863C60.4899 27.6863 60.4899 27.6863 60.4899 27.6863C60.4899 27.6863 60.4899 27.6863 60.4899 27.6863C60.4899 27.6863 60.4899 27.6863 60.4899 27.6863C60.4899 27.6863 60.4899 27.6863 60.4899 27.6863C60.4899 27.6863 60.4899 27.6863 60.4899 27.6863C60.4899 27.6863 60.4899 27.6863 60.4899 27.6863C60.4899 27.6863 60.4899 27.6863 60.4899 27.6863C60.4899 27.6863 60.4899 27.6863 60.4899 27.6863C60.4899 27.6863 60.4899 27.6863 60.4899 27.6863C60.4899 27.6863 60.4899 27.6863 60.4899 27.6863C60.4899 27.6863 60.4899 27.6863 60.4899 27.6863C60.4899 27.6863 60.4899 27.6863 60.4899 27.6863C60.4899 27.6863 60.4899 27.6863 60.4899 27.6863C60.4899 27.6863 60.4899 27.6863 60.4899 27.6863C60.4899 27.6863 60.4899 27.6863 60.4899 27.6863C60.4899 27.6863 60.4899 27.6863 60.4899 27.6863C60.4899 27.6863 60.4899 27.6863 60.4899 27.6863C60.4899 27.6863 60.4899 27.6863 60.4899 27.6863C60.4899 27.6863 60.4899 27.6863 60.4899 27.6863C60.4899 27.6863 60.4899 27.6863 60.4899 27.6863C60.4899 27.6863 60.4899 27.6863 60.4899 27.6863C60.4899 27.6863 60.4899 27.6863 60.4899 27.6863C60.4899 27.6863 60.4899 27.6863 60.4899 27.6863C60.4899 27.6863 60.4899 27.6863 60.4899 27.6863C60.4899 27.6863 60.4899 27.6863 60.4899 27.6863C60.4899 27.6863 60.4899 27.6863 60.4899 27.6863C60.4899 27.6863 60.4899 27.6863 60.4899 27.6863C60.4899 27.6863 60.4899 27.6863 60.4899 27.6863C60.4899 27.6863 60.4899 27.6863 60.4899 27.6863C60.4899 27.6863 60.4899 27.6863 60.4899 27.6863C60.4899 27.6863 60.4899 27.6863 60.4899 27.6863C60.4899 27.6863 60.4899 27.6863 60.4899 27.6863C60.4899 27.6863 60.4899 27.6863 60.4899 27.6863C60.4899 27.6863 60.4899 27.6863 60.4899 27.6863C60.4899 27.6863 60.4899 27.6863 60.4899 27.6863C60.4899 27.6863 60.4899 27.6863 60.4899 27.6863C60.4899 27.6863 60.4899 27.6863 60.4899 27.6863C60.4899 27.6863 60.4899 27.6863 60.4899 27.6863C60.4899 27.6863 60.4899 27.6863 60.4899 27.6863C60.4899 27.6863 60.4899 27.6863 60.4899 27.6863C60.4899 27.6863 60.4899 27.6863 60.4899 27.6863C60.4899 27.6863 60.4899 27.6863 60.4899 27.6863C60.4899 27.6863 60.4899 27.6863 60.4899 27.6863C60.4899 27.6863 60.4899 27.6863 60.4899 27.6863C60.4899 27.6863 60.4899 27.6863 60.4899 27.6863C60.4899 27.6863 60.4899 27.6863 60.4899 27.6863C60.4899 27.6863 60.4899 27.6863 60.4899 27.6863C60.4899 27.6863 60.4899 27.6863 60.4899 27.6863C60.4899 27.6863 60.4899 27.6863 60.4899 27.6863C60.4899 27.6863 60.4899 27.6863 60.4899 27.6863C60.4899 27.6863 60.4899 27.6863 60.4899 27.6863C60.4899 27.6863 60.4899 27.6863 60.4899 27.6863C60.4899 27.6863 60.4899 27.6863 60.4899 27.6863C60.4899 27.6863 60.4899 27.6863 60.4899 27.6863C60.4899 27.6863 60.4899 27.6863 60.4899 27.6863C60.4899 27.6863 60.4899 27.6863 60.4899 27.6863C60.4899 27.6863 60.4899 27.6863 60.4899 27.6863C60.4899 27.6863 60.4899 27.6863 60.4899 27.6863C60.4899 27.6863 60.4899 27.6863 60.4899 27.6863C60.4899 27.6863 60.4899 27.6863 60.4899 27.6863C60.4899 27.6863 60.4899 27.6863 60.4899 27.6863C60.4899 27.6863 60.4899 27.6863 60.4899 27.6863C60.4899 27.6863 60.4899 27.6863 60.4899 27.6863C60.4899 27.6863 60.4899 27.6863 60.4899 27.6863C60.4899 27.6863 60.4899 27.6863 60.4899 27.6863C60.4899 27.6863 60.4899 27.6863 60.4899 27.6863C60.4899 27.6863 60.4899 27.6863 60.4899 27.6863C60.4899 27.6863 60.4899 27.6863 60.4899 27.6863C60.4899 27.6863 60.4899 27.6863 60.4899 27.6863C60.4899 27.6863 60.4899 27.6863 60.4899 27.6863C60.4899 27.6863 60.4899 27.6863 60.4899 27.6863C60.4899 27.6863 60.4899 27.6863 60.4899 27.6863C60.4899 27.6863 60.4899 27.6863 60.4899 27.6863C60.4899 27.6863 60.4899 27.6863 60.4899 27.6863C60.4899 27.6863 60.4899 27.6863 60.4899 27.6863C60.4899 27.6863 60.4899 27.6863 60.4899 27.6863C60.4899 27.6863 60.4899 27.6863 60.4899 27.6863C60.4899 27.6863 60.4899 27.6863 60.4899 27.6863C60.4899 27.6863 60.4899 27.6863 60.4899 27.6863C60.4899 27.6863 60.4899 27.6863 60.4899 27.6863C60.4899 27.6863 60.4899 27.6863 60.4899 27.6863C60.4899 27.6863 60.4899 27.6863 60.4899 27.6863C60.4899 27.6863 60.4899 27.6863 60.4899 27.6863C60.4899 27.6863 60.4899 27.6863 60.4899 27.6863C60.4899 27.6863 60.4899 27.6863 60.4899 27.6863C60.4899 27.6863 60.4899 27.6863 60.4899 27.6863C60.4899 27.6863 60.4899 27.6863 60.4899 27.6863C60.4899 27.6863 60.4899 27.6863 60.4899 27.6863C60.4899 27.6863 60.4899 27.6863 60.4899 27.6863C60.4899 27.6863 60.4899 27.6863 60.4899 27.6863C60.4899 27.6863 60.4899 27.6863 60.4899 27.6863C60.4899 27.6863 60.4899 27.6863 60.4899 27.6863C60.4899 27.6863 60.4899 27.6863 60.4899 27.6863C60.4899 27.6863 60.4899 27.6863 60.4899 27.6863C60.4899 27.6863 60.4899 27.6863 60.4899 27.6863C60.4899 27.6863 60.4899 27.6863 60.4899 27.6863C60.4899 27.6863 60.4899 27.6863 60.4899 27.6863C60.4899 27.6863 60.4899 27.6863 60.4899 27.6863C60.4899 27.6863 60.4899 27.6863 60.4899 27.6863C60.4899 27.6863 60.4899 27.6863 60.4899 27.6863C60.4899 27.6863 60.4899 27.6863 60.4899 27.6863C60.4899 27.6863 60.4899 27.6863 60.4899 27.6863C60.4899 27.6863 60.4899 27.6863 60.4899 27.6863C60.4899 27.6863 60.4899 27.6863 60.4899 27.6863C60.4899 27.6863 60.4899 27.6863 60.4899 27.6863C60.4899 27.6863 60.4899 27.6863 60.4899 27.6863C60.4899 27.6863 60.4899 27.6863 60.4899 27.6863C60.4899 27.6863 60.4899 27.6863 60.4899 27.6863C60.4899 27.6863 60.4899 27.6863 60.4899 27.6863C60.4899 27.6863 60.4899 27.6863 60.4899 27.6863C60.4899 27.6863 60.4899 27.6863 60.4899 27.6863C60.4899 27.6863 60.4899 27.6863 60.4899 27.6863C60.4899 27.6863 60.4899 27.6863 60.4899 27.6863C60.4899 27.6863 60.4899 27.6863 60.4899 27.6863C60.4899 27.6863 60.4899 27.6863 60.4899 27.6863C60.4899 27.6863 60.4899 27.6863 60.4899 27.6863C60.4899 27.6863 60.4899 27.6863 60.4899 27.6863C60.4899 27.6863 60.4899 27.6863 60.4899 27.6863C60.4899 27.6863 60.4899 27.6863 60.4899 27.6863C60.4899 27.6863 60.4899 27.6863 60.4899 27.6863C60.4899 27.6863 60.4899 27.6863 60.4899 27.6863C60.4899 27.6863 60.4899 27.6863 60.4899 27.6863C60.4899 27.6863 60.4899 27.6863 60.4899 27.6863C60.4899 27.6863 60.4899 27.6863 60.4899 27.6863C60.4899 27.6863 60.4899 27.6863 60.4899 27.6863C60.4899 27.6863 60.4899 27.6863 60.4899 27.6863C60.4899 27.6863 60.4899 27.6863 60.4899 27.6863C60.4899 27.6863 60.4899 27.6863 60.4899 27.6863C60.4899 27.6863 60.4899 27.6863 60.4899 27.6863C60.4899 27.6863 60.4899 27.6863 60.4899 27.6863C60.4899 27.6863 60.4899 27.6863 60.4899 27.6863C60.4899 27.6863 60.4899 27.6863 60.4899 27.6863C60.4899 27.6863 60.4899 27.6863 60.4899 27.6863C60.4899 27.6863 60.4899 27.6863 60.4899 27.6863C60.4899 27.6863 60.4899 27.6863 60.4899 27.6863C60.4899 27.6863 60.4899 27.6863 60.4899 27.6863C60.4899 27.6863 60.4899 27.6863 60.4899 27.6863C60.4899 27.6863 60.4899 27.6863 60.4899 27.6863C60.4899 27.6863 60.4899 27.6863 60.4899 27.6863C60.4899 27.6863 60.4899 27.6863 60.4899 27.6863C60.4899 27.6863 60.4899 27.6863 60.4899 27.6863C60.4899 27.6863 60.4899 27.6863 60.4899 27.6863C60.4899 27.6863 60.4899 27.6863 60.4899 27.6863C60.4899 27.6863 60.4899 27.6863 60.4899 27.6863C60.4899 27.6863 60.4899 27.6863 60.4899 27.6863C60.4899 27.6863 60.4899 27.6863 60.4899 27.6863C60.4899 27.6863 60.4899 27.6863 60.4899 27.6863C60.4899 27.6863 60.4899 27.6863 60.4899 27.6863C60.4899 27.6863 60.4899 27.6863 60.4899 27.6863C60.4899 27.6863 60.4899 27.6863 60.4899 27.6863C60.4899 27.6863 60.4899 27.6863 60.4899 27.6863C60.4899 27.6863 60.4899 27.6863 60.4899 27.6863C60.4899 27.6863 60.4899 27.6863 60.4899 27.6863C60.4899 27.6863 60.4899 27.6863 60.4899 27.6863C60.4899 27.6863 60.4899 27.6863 60.4899 27.6863C60.4899 27.6863 60.4899 27.6863 60.4899 27.6863C60.4899 27.6863 60.4899 27.6863 60.4899 27.6863C60.4899 27.6863 60.4899 27.6863 60.4899 27.6863C60.4899 27.6863 60.4899 27.6863 60.4899 27.6863C60.4899 27.6863 60.4899 27.6863 60.4899 27.6863C60.4899 27.6863 60.4899 27.6863 60.4899 27.6863C60.4899 27.6863 60.4899 27.6863 60.4899 27.6863C60.4899 27.6863 60.4899 27.6863 60.4899 27.6863C60.4899 27.6863 60.4899 27.6863 60.4899 27.6863C60.4899 27.6863 60.4899 27.6863 60.4899 27.6863C60.4899 27.6863 60.4899 27.6863 60.4899 27.6863C60.4899 27.6863 60.4899 27.6863 60.4899 27.6863C60.4899 27.6863 60.4899 27.6863 60.4899 27.6863C60.4899 27.6863 60.4899 27.6863 60.4899 27.6863C60.4899 27.6863 60.4899 27.6863 60.4899 27.6863C60.4899 27.6863 60.4899 27.6863 60.4899 27.6863C60.4899 27.6863 60.4899 27.6863 60.4899 27.6863C60.4899 27.6863 60.4899 27.6863 60.4899 27.6863C60.4899 27.6863 60.4899 27.6863 60.4899 27.6863C60.4899 27.6863 60.4899 27.6863 60.4899 27.6863C60.4899 27.6863 60.4899 27.6863 60.4899 27.6863C60.4899 27.6863 60.4899 27.6863 60.4899 27.6863C60.4899 27.6863 60.4899 27.6863 60.4899 27.6863C60.4899 27.6863 60.4899 27.6863 60.4899 27.6863C60.4899 27.6863 60.4899 27.6863 60.4899 27.6863C60.4899 27.6863 60.4899 27.6863 60.4899 27.6863C60.4899 27.6863 60.4899 27.6863 60.4899 27.6863C60.4899 27.6863 60.4899 27.6863 60.4899 27.6863C60.4899 27.6863 60.4899 27.6863 60.4899 27.6863C60.4899 27.6863 60.4899 27.6863 60.4899 27.6863C60.4899 27.6863 60.4899 27.6863 60.4899 27.6863C60.4899 27.6863 60.4899 27.6863 60.4899 27.6863C60.4899 27.6863 60.4899 27.6863 60.4899 27.6863C60.4899 27.6863 60.4899 27.6863 60.4899 27.6863C60.4899 27.6863 60.4899 27.6863 60.4899 27.6863C60.4899 27.6863 60.4899 27.6863 60.4899 27.6863C60.4899 27.6863 60.4899 27.6863 60.4899 27.6863C60.4899 27.6863 60.4899 27.6863 60.4899 27.6863C60.4899 27.6863 60.4899 27.6863 60.4899 27.6863C60.4899 27.6863 60.4899 27.6863 60.4899 27.6863C60.4899 27.6863 60.4899 27.6863 60.4899 27.6863C60.4899 27.6863 60.4899 27.6863 60.4899 27.6863C60.4899 27.6863 60.4899 27.6863 60.4899 27.6863C60.4899 27.6863 60.4899 27.6863 60.4899 27.6863C60.4899 27.6863 60.4899 27.6863 60.4899 27.6863C60.4899 27.6863 60.4899 27.6863 60.4899 27.6863C60.4899 27.6863 60.4899 27.6863 60.4899 27.6863C60.4899 27.6863 60.4899 27.6863 60.4899 27.6863C60.4899 27.6863 60.4899 27.6863 60.4899 27.6863C60.4899 27.6863 60.4899 27.6863 60.4899 27.6863C60.4899 27.6863 60.4899 27.6863 60.4899 27.6863C60.4899 27.6863 60.4899 27.6863 60.4899 27.6863C60.4899 27.6863 60.4899 27.6863 60.4899 27.6863C60.4899 27.6863 60.4899 27.6863 60.4899 27.6863C60.4899 27.6863 60.4899 27.6863 60.4899 27.6863C60.4899 27.6863 60.4899 27.6863 60.4899 27.6863C60.4899 27.6863 60.4899 27.6863 60.4899 27.6863C60.4899 27.6863 60.4899 27.6863 60.4899 27.6863C60.4899 27.6863 60.4899 27.6863 60.4899 27.6863C60.4899 27.6863 60.4899 27.6863 60.4899 27.6863C60.4899 27.6863 60.4899 27.6863 60.4899 27.6863C60.4899 27.6863 60.4899 27.6863 60.4899 27.6863C60.4899 27.6863 60.4899 27.6863 60.4899 27.6863C60.4899 27.6863 60.4899 27.6863 60.4899 27.6863C60.4899 27.6863 60.4899 27.6863 60.4899 27.6863C60.4899 27.6863 60.4899 27.6863 60.4899 27.6863C60.4899 27.6863 60.4899 27.6863 60.4899 27.6863C60.4899 27.6863 60.4899 27.6863 60.4899 27.6863C60.4899 27.6863 60.4899 27.6863 60.4899 27.6863C60.4899 27.6863 60.4899 27.6863 60.4899 27.6863C60.4899 27.6863 60.4899 27.6863 60.4899 27.6863C60.4899 27.6863 60.4899 27.6863 60.4899 27.6863C60.4899 27.6863 60.4899 27.6863 60.4899 27.6863C60.4899 27.6863 60.4899 27.6863 60.4899 27.6863C60.4899 27.6863 60.4899 27.6863 60.4899 27.6863C60.4899 27.6863 60.4899 27.6863 60.4899 27.6863C60.4899 27.6863 60.4899 27.6863 60.4899 27.6863C60.4899 27.6863 60.4899 27.6863 60.4899 27.6863C60.4899 27.6863 60.4899 27.6863 60.4899 27.6863C60.4899 27.6863 60.4899 27.6863 60.4899 27.6863C60.4899 27.6863 60.4899 27.6863 60.4899 27.6863C60.4899 27.6863 60.4899 27.6863 60.4899 27.6863C60.4899 27.6863 60.4899 27.6863 60.4899 27.6863C60.4899 27.6863 60.4899 27.6863 60.4899 27.6863C60.4899 27.6863 60.4899 27.6863 60.4899 27.6863C60.4899 27.6863 60.4899 27.6863 60.4899 27.6863C60.4899 27.6863 60.4899 27.6863 60.4899 27.6863C60.4899 27.6863 60.4899 27.6863 60.4899 27.6863C60.4899 27.6863 60.4899 27.6863 60.4899 27.6863C60.4899 27.6863 60.4899 27.6863 60.4899 27.6863C60.4899 27.6863 60.4899 27.6863 60.4899 27.6863C60.4899 27.6863 60.4899 27.6863 60.4899 27.6863C60.4899 27.6863 60.4899 27.6863 60.4899 27.6863C60.4899 27.6863 60.4899 27.6863 60.4899 27.6863C60.4899 27.6863 60.4899 27.6863 60.4899 27.6863C60.4899 27.6863 60.4899 27.6863 60.4899 27.6863C60.4899 27.6863 60.4899 27.6863 60.4899 27.6863C60.4899 27.6863 60.4899 27.6863 60.4899 27.6863C60.4899 27.6863 60.4899 27.6863 60.4899 27.6863C60.4899 27.6863 60.4899 27.6863 60.4899 27.6863C60.4899 27.6863 60.4899 27.6863 60.4899 27.6863C60.4899 27.6863 60.4899 27.6863 60.4899 27.6863C60.4899 27.6863 60.4899 27.6863 60.4899 27.6863C60.4899 27.6863 60.4899 27.6863 60.4899 27.6863C60.4899 27.6863 60.4899 27.6863 60.4899 27.6863C60.4899 27.6863 60.4899 27.6863 60.4899 27.6863C60.4899 27.6863 60.4899 27.6863 60.4899 27.6863C60.4899 27.6863 60.4899 27.6863 60.4899 27.6862C60.4899 27.6862 60.4899 27.6862 60.4899 27.6862C60.4899 27.6862 60.4899 27.6862 60.4899 27.6862C60.4899 27.6862 60.4899 27.6862 60.4899 27.6862C60.4899 27.6862 60.4899 27.6862 60.4899 27.6862C60.4899 27.6862 60.4899 27.6862 60.4899 27.6862C60.4899 27.6862 60.4899 27.6862 60.4899 27.6862C60.4899 27.6862 60.4899 27.6862 60.4899 27.6862C60.4899 27.6862 60.4899 27.6862 60.4899 27.6862C60.4899 27.6862 60.4899 27.6862 60.4899 27.6862C60.4899 27.6862 60.4899 27.6862 60.4899 27.6862C60.4899 27.6862 60.4899 27.6862 60.4899 27.6862C60.4899 27.6862 60.4899 27.6862 60.4899 27.6862C60.4899 27.6862 60.4899 27.6862 60.4899 27.6862C60.4899 27.6862 60.4899 27.6862 60.4899 27.6862C60.4899 27.6862 60.4899 27.6862 60.4899 27.6862C60.4899 27.6862 60.4899 27.6862 60.4899 27.6862C60.4899 27.6862 60.4899 27.6862 60.4899 27.6862C60.4899 27.6862 60.4899 27.6862 60.4899 27.6862C60.4899 27.6862 60.4899 27.6862 60.4899 27.6862C60.4899 27.6862 60.4899 27.6862 60.4899 27.6862C60.4899 27.6862 60.4899 27.6862 60.4899 27.6862C60.4899 27.6862 60.4899 27.6862 60.4899 27.6862C60.4899 27.6862 60.4899 27.6862 60.4899 27.6862C60.4899 27.6862 60.4899 27.6862 60.4899 27.6862C60.4899 27.6862 60.4899 27.6862 60.4899 27.6862C60.4899 27.6862 60.4899 27.6862 60.4899 27.6862C60.4899 27.6862 60.4899 27.6862 60.4899 27.6862C60.4899 27.6862 60.4899 27.6862 60.4899 27.6862C60.4899 27.6862 60.4899 27.6862 60.4899 27.6862C60.4899 27.6862 60.4899 27.6862 60.4899 27.6862C60.4899 27.6862 60.4899 27.6862 60.4899 27.6862C60.4899 27.6862 60.4899 27.6862 60.4899 27.6862C60.4899 27.6862 60.4899 27.6862 60.4899 27.6862C60.4899 27.6862 60.4899 27.6862 60.4899 27.6862C60.4899 27.6862 60.4899 27.6862 60.4899 27.6862C60.4899 27.6862 60.4899 27.6862 60.4899 27.6862C60.4899 27.6862 60.4899 27.6862 60.4899 27.6862C60.4899 27.6862 60.4899 27.6862 60.4899 27.6862C60.4899 27.6862 60.4899 27.6862 60.4899 27.6862C60.4899 27.6862 60.4899 27.6862 60.4899 27.6862C60.4899 27.6862 60.4899 27.6862 60.4899 27.6862C60.4899 27.6862 60.4899 27.6862 60.4899 27.6862C60.4899 27.6862 60.4899 27.6862 60.4899 27.6862C60.4899 27.6862 60.4899 27.6862 60.4899 27.6862C60.4899 27.6862 60.4899 27.6862 60.4899 27.6862C60.4899 27.6862 60.4899 27.6862 60.4899 27.6862C60.4899 27.6862 60.4899 27.6862 60.4899 27.6862C60.4899 27.6862 60.4899 27.6862 60.4899 27.6862C60.4899 27.6862 60.4899 27.6862 60.4899 27.6862C60.4899 27.6862 60.4899 27.6862 60.4899 27.6862C60.4899 27.6862 60.4899 27.6862 60.4899 27.6862C60.4899 27.6862 60.4899 27.6862 60.4899 27.6862C60.4899 27.6862 60.4899 27.6862 60.4899 27.6862C60.4899 27.6862 60.4899 27.6862 60.4899 27.6862C60.4899 27.6862 60.4899 27.6862 60.4899 27.6862C60.4899 27.6862 60.4899 27.6862 60.4899 27.6862C60.4899 27.6862 60.4899 27.6862 60.4899 27.6862C60.4899 27.6862 60.4899 27.6862 60.4899 27.6862C60.4899 27.6862 60.4899 27.6862 60.4899 27.6862H59.4899C59.4899 27.6862 59.4899 27.6862 59.4899 27.6862C59.4899 27.6862 59.4899 27.6862 59.4899 27.6862C59.4899 27.6862 59.4899 27.6862 59.4899 27.6862C59.4899 27.6862 59.4899 27.6862 59.4899 27.6862C59.4899 27.6862 59.4899 27.6862 59.4899 27.6862C59.4899 27.6862 59.4899 27.6862 59.4899 27.6862C59.4899 27.6862 59.4899 27.6862 59.4899 27.6862C59.4899 27.6862 59.4899 27.6862 59.4899 27.6862C59.4899 27.6862 59.4899 27.6862 59.4899 27.6862C59.4899 27.6862 59.4899 27.6862 59.4899 27.6862C59.4899 27.6862 59.4899 27.6862 59.4899 27.6862C59.4899 27.6862 59.4899 27.6862 59.4899 27.6862C59.4899 27.6862 59.4899 27.6862 59.4899 27.6862C59.4899 27.6862 59.4899 27.6862 59.4899 27.6862C59.4899 27.6862 59.4899 27.6862 59.4899 27.6862C59.4899 27.6862 59.4899 27.6862 59.4899 27.6862C59.4899 27.6862 59.4899 27.6862 59.4899 27.6862C59.4899 27.6862 59.4899 27.6862 59.4899 27.6862C59.4899 27.6862 59.4899 27.6862 59.4899 27.6862C59.4899 27.6862 59.4899 27.6862 59.4899 27.6862C59.4899 27.6862 59.4899 27.6862 59.4899 27.6862C59.4899 27.6862 59.4899 27.6862 59.4899 27.6862C59.4899 27.6862 59.4899 27.6862 59.4899 27.6862C59.4899 27.6862 59.4899 27.6862 59.4899 27.6862C59.4899 27.6862 59.4899 27.6862 59.4899 27.6862C59.4899 27.6862 59.4899 27.6862 59.4899 27.6862C59.4899 27.6862 59.4899 27.6862 59.4899 27.6862C59.4899 27.6862 59.4899 27.6862 59.4899 27.6862C59.4899 27.6862 59.4899 27.6862 59.4899 27.6862C59.4899 27.6862 59.4899 27.6862 59.4899 27.6862C59.4899 27.6862 59.4899 27.6862 59.4899 27.6862C59.4899 27.6862 59.4899 27.6862 59.4899 27.6862C59.4899 27.6862 59.4899 27.6862 59.4899 27.6862C59.4899 27.6862 59.4899 27.6862 59.4899 27.6862C59.4899 27.6862 59.4899 27.6862 59.4899 27.6862C59.4899 27.6862 59.4899 27.6862 59.4899 27.6862C59.4899 27.6862 59.4899 27.6862 59.4899 27.6862C59.4899 27.6862 59.4899 27.6862 59.4899 27.6862C59.4899 27.6862 59.4899 27.6862 59.4899 27.6862C59.4899 27.6862 59.4899 27.6862 59.4899 27.6862C59.4899 27.6862 59.4899 27.6862 59.4899 27.6862C59.4899 27.6862 59.4899 27.6862 59.4899 27.6862C59.4899 27.6862 59.4899 27.6862 59.4899 27.6862C59.4899 27.6862 59.4899 27.6862 59.4899 27.6862C59.4899 27.6862 59.4899 27.6862 59.4899 27.6862C59.4899 27.6862 59.4899 27.6862 59.4899 27.6862C59.4899 27.6862 59.4899 27.6862 59.4899 27.6862C59.4899 27.6862 59.4899 27.6862 59.4899 27.6862C59.4899 27.6862 59.4899 27.6862 59.4899 27.6862C59.4899 27.6862 59.4899 27.6862 59.4899 27.6862C59.4899 27.6862 59.4899 27.6862 59.4899 27.6862C59.4899 27.6862 59.4899 27.6862 59.4899 27.6862C59.4899 27.6862 59.4899 27.6862 59.4899 27.6862C59.4899 27.6862 59.4899 27.6862 59.4899 27.6862C59.4899 27.6862 59.4899 27.6862 59.4899 27.6862C59.4899 27.6862 59.4899 27.6862 59.4899 27.6862C59.4899 27.6862 59.4899 27.6862 59.4899 27.6862C59.4899 27.6862 59.4899 27.6862 59.4899 27.6862C59.4899 27.6862 59.4899 27.6862 59.4899 27.6862C59.4899 27.6863 59.4899 27.6863 59.4899 27.6863C59.4899 27.6863 59.4899 27.6863 59.4899 27.6863C59.4899 27.6863 59.4899 27.6863 59.4899 27.6863C59.4899 27.6863 59.4899 27.6863 59.4899 27.6863C59.4899 27.6863 59.4899 27.6863 59.4899 27.6863C59.4899 27.6863 59.4899 27.6863 59.4899 27.6863C59.4899 27.6863 59.4899 27.6863 59.4899 27.6863C59.4899 27.6863 59.4899 27.6863 59.4899 27.6863C59.4899 27.6863 59.4899 27.6863 59.4899 27.6863C59.4899 27.6863 59.4899 27.6863 59.4899 27.6863C59.4899 27.6863 59.4899 27.6863 59.4899 27.6863C59.4899 27.6863 59.4899 27.6863 59.4899 27.6863C59.4899 27.6863 59.4899 27.6863 59.4899 27.6863C59.4899 27.6863 59.4899 27.6863 59.4899 27.6863C59.4899 27.6863 59.4899 27.6863 59.4899 27.6863C59.4899 27.6863 59.4899 27.6863 59.4899 27.6863C59.4899 27.6863 59.4899 27.6863 59.4899 27.6863C59.4899 27.6863 59.4899 27.6863 59.4899 27.6863C59.4899 27.6863 59.4899 27.6863 59.4899 27.6863C59.4899 27.6863 59.4899 27.6863 59.4899 27.6863C59.4899 27.6863 59.4899 27.6863 59.4899 27.6863C59.4899 27.6863 59.4899 27.6863 59.4899 27.6863C59.4899 27.6863 59.4899 27.6863 59.4899 27.6863C59.4899 27.6863 59.4899 27.6863 59.4899 27.6863C59.4899 27.6863 59.4899 27.6863 59.4899 27.6863C59.4899 27.6863 59.4899 27.6863 59.4899 27.6863C59.4899 27.6863 59.4899 27.6863 59.4899 27.6863C59.4899 27.6863 59.4899 27.6863 59.4899 27.6863C59.4899 27.6863 59.4899 27.6863 59.4899 27.6863C59.4899 27.6863 59.4899 27.6863 59.4899 27.6863C59.4899 27.6863 59.4899 27.6863 59.4899 27.6863C59.4899 27.6863 59.4899 27.6863 59.4899 27.6863C59.4899 27.6863 59.4899 27.6863 59.4899 27.6863C59.4899 27.6863 59.4899 27.6863 59.4899 27.6863C59.4899 27.6863 59.4899 27.6863 59.4899 27.6863C59.4899 27.6863 59.4899 27.6863 59.4899 27.6863C59.4899 27.6863 59.4899 27.6863 59.4899 27.6863C59.4899 27.6863 59.4899 27.6863 59.4899 27.6863C59.4899 27.6863 59.4899 27.6863 59.4899 27.6863C59.4899 27.6863 59.4899 27.6863 59.4899 27.6863C59.4899 27.6863 59.4899 27.6863 59.4899 27.6863C59.4899 27.6863 59.4899 27.6863 59.4899 27.6863C59.4899 27.6863 59.4899 27.6863 59.4899 27.6863C59.4899 27.6863 59.4899 27.6863 59.4899 27.6863C59.4899 27.6863 59.4899 27.6863 59.4899 27.6863C59.4899 27.6863 59.4899 27.6863 59.4899 27.6863C59.4899 27.6863 59.4899 27.6863 59.4899 27.6863C59.4899 27.6863 59.4899 27.6863 59.4899 27.6863C59.4899 27.6863 59.4899 27.6863 59.4899 27.6863C59.4899 27.6863 59.4899 27.6863 59.4899 27.6863C59.4899 27.6863 59.4899 27.6863 59.4899 27.6863C59.4899 27.6863 59.4899 27.6863 59.4899 27.6863C59.4899 27.6863 59.4899 27.6863 59.4899 27.6863C59.4899 27.6863 59.4899 27.6863 59.4899 27.6863C59.4899 27.6863 59.4899 27.6863 59.4899 27.6863C59.4899 27.6863 59.4899 27.6863 59.4899 27.6863C59.4899 27.6863 59.4899 27.6863 59.4899 27.6863C59.4899 27.6863 59.4899 27.6863 59.4899 27.6863C59.4899 27.6863 59.4899 27.6863 59.4899 27.6863C59.4899 27.6863 59.4899 27.6863 59.4899 27.6863C59.4899 27.6863 59.4899 27.6863 59.4899 27.6863C59.4899 27.6863 59.4899 27.6863 59.4899 27.6863C59.4899 27.6863 59.4899 27.6863 59.4899 27.6863C59.4899 27.6863 59.4899 27.6863 59.4899 27.6863C59.4899 27.6863 59.4899 27.6863 59.4899 27.6863C59.4899 27.6863 59.4899 27.6863 59.4899 27.6863C59.4899 27.6863 59.4899 27.6863 59.4899 27.6863C59.4899 27.6863 59.4899 27.6863 59.4899 27.6863C59.4899 27.6863 59.4899 27.6863 59.4899 27.6863C59.4899 27.6863 59.4899 27.6863 59.4899 27.6863C59.4899 27.6863 59.4899 27.6863 59.4899 27.6863C59.4899 27.6863 59.4899 27.6863 59.4899 27.6863C59.4899 27.6863 59.4899 27.6863 59.4899 27.6863C59.4899 27.6863 59.4899 27.6863 59.4899 27.6863C59.4899 27.6863 59.4899 27.6863 59.4899 27.6863C59.4899 27.6863 59.4899 27.6863 59.4899 27.6863C59.4899 27.6863 59.4899 27.6863 59.4899 27.6863C59.4899 27.6863 59.4899 27.6863 59.4899 27.6863C59.4899 27.6863 59.4899 27.6863 59.4899 27.6863C59.4899 27.6863 59.4899 27.6863 59.4899 27.6863C59.4899 27.6863 59.4899 27.6863 59.4899 27.6863C59.4899 27.6863 59.4899 27.6863 59.4899 27.6863C59.4899 27.6863 59.4899 27.6863 59.4899 27.6863C59.4899 27.6863 59.4899 27.6863 59.4899 27.6863C59.4899 27.6863 59.4899 27.6863 59.4899 27.6863C59.4899 27.6863 59.4899 27.6863 59.4899 27.6863C59.4899 27.6863 59.4899 27.6863 59.4899 27.6863C59.4899 27.6863 59.4899 27.6863 59.4899 27.6863C59.4899 27.6863 59.4899 27.6863 59.4899 27.6863C59.4899 27.6863 59.4899 27.6863 59.4899 27.6863C59.4899 27.6863 59.4899 27.6863 59.4899 27.6863C59.4899 27.6863 59.4899 27.6863 59.4899 27.6863C59.4899 27.6863 59.4899 27.6863 59.4899 27.6863C59.4899 27.6863 59.4899 27.6863 59.4899 27.6863C59.4899 27.6863 59.4899 27.6863 59.4899 27.6863C59.4899 27.6863 59.4899 27.6863 59.4899 27.6863C59.4899 27.6863 59.4899 27.6863 59.4899 27.6863C59.4899 27.6863 59.4899 27.6863 59.4899 27.6863C59.4899 27.6863 59.4899 27.6863 59.4899 27.6863C59.4899 27.6863 59.4899 27.6863 59.4899 27.6863C59.4899 27.6863 59.4899 27.6863 59.4899 27.6863C59.4899 27.6863 59.4899 27.6863 59.4899 27.6863C59.4899 27.6863 59.4899 27.6863 59.4899 27.6863C59.4899 27.6863 59.4899 27.6863 59.4899 27.6863C59.4899 27.6863 59.4899 27.6863 59.4899 27.6863C59.4899 27.6863 59.4899 27.6863 59.4899 27.6863C59.4899 27.6863 59.4899 27.6863 59.4899 27.6863C59.4899 27.6863 59.4899 27.6863 59.4899 27.6863C59.4899 27.6863 59.4899 27.6863 59.4899 27.6863C59.4899 27.6863 59.4899 27.6863 59.4899 27.6863C59.4899 27.6863 59.4899 27.6863 59.4899 27.6863C59.4899 27.6863 59.4899 27.6863 59.4899 27.6863C59.4899 27.6863 59.4899 27.6863 59.4899 27.6863C59.4899 27.6863 59.4899 27.6863 59.4899 27.6863C59.4899 27.6863 59.4899 27.6863 59.4899 27.6863C59.4899 27.6863 59.4899 27.6863 59.4899 27.6863C59.4899 27.6863 59.4899 27.6863 59.4899 27.6863C59.4899 27.6863 59.4899 27.6863 59.4899 27.6863C59.4899 27.6863 59.4899 27.6863 59.4899 27.6863C59.4899 27.6863 59.4899 27.6863 59.4899 27.6863C59.4899 27.6863 59.4899 27.6863 59.4899 27.6863C59.4899 27.6863 59.4899 27.6863 59.4899 27.6863C59.4899 27.6863 59.4899 27.6863 59.4899 27.6863C59.4899 27.6863 59.4899 27.6863 59.4899 27.6863C59.4899 27.6863 59.4899 27.6863 59.4899 27.6863C59.4899 27.6863 59.4899 27.6863 59.4899 27.6863C59.4899 27.6863 59.4899 27.6863 59.4899 27.6863C59.4899 27.6863 59.4899 27.6863 59.4899 27.6863C59.4899 27.6863 59.4899 27.6863 59.4899 27.6863C59.4899 27.6863 59.4899 27.6863 59.4899 27.6863C59.4899 27.6863 59.4899 27.6863 59.4899 27.6863C59.4899 27.6863 59.4899 27.6863 59.4899 27.6863C59.4899 27.6863 59.4899 27.6863 59.4899 27.6863C59.4899 27.6863 59.4899 27.6863 59.4899 27.6863C59.4899 27.6863 59.4899 27.6863 59.4899 27.6863C59.4899 27.6863 59.4899 27.6863 59.4899 27.6863C59.4899 27.6863 59.4899 27.6863 59.4899 27.6863C59.4899 27.6863 59.4899 27.6863 59.4899 27.6863C59.4899 27.6863 59.4899 27.6863 59.4899 27.6863C59.4899 27.6863 59.4899 27.6863 59.4899 27.6863C59.4899 27.6863 59.4899 27.6863 59.4899 27.6863C59.4899 27.6863 59.4899 27.6863 59.4899 27.6863C59.4899 27.6863 59.4899 27.6863 59.4899 27.6863C59.4899 27.6863 59.4899 27.6863 59.4899 27.6863C59.4899 27.6863 59.4899 27.6863 59.4899 27.6863C59.4899 27.6863 59.4899 27.6863 59.4899 27.6863C59.4899 27.6863 59.4899 27.6863 59.4899 27.6863C59.4899 27.6863 59.4899 27.6863 59.4899 27.6863C59.4899 27.6863 59.4899 27.6863 59.4899 27.6863C59.4899 27.6863 59.4899 27.6863 59.4899 27.6863C59.4899 27.6863 59.4899 27.6863 59.4899 27.6863C59.4899 27.6863 59.4899 27.6863 59.4899 27.6863C59.4899 27.6863 59.4899 27.6863 59.4899 27.6863C59.4899 27.6863 59.4899 27.6863 59.4899 27.6863C59.4899 27.6863 59.4899 27.6863 59.4899 27.6863C59.4899 27.6863 59.4899 27.6863 59.4899 27.6863C59.4899 27.6863 59.4899 27.6863 59.4899 27.6863C59.4899 27.6863 59.4899 27.6863 59.4899 27.6863C59.4899 27.6863 59.4899 27.6863 59.4899 27.6863C59.4899 27.6863 59.4899 27.6863 59.4899 27.6863C59.4899 27.6863 59.4899 27.6863 59.4899 27.6863C59.4899 27.6863 59.4899 27.6863 59.4899 27.6863C59.4899 27.6863 59.4899 27.6863 59.4899 27.6863C59.4899 27.6863 59.4899 27.6863 59.4899 27.6863C59.4899 27.6863 59.4899 27.6863 59.4899 27.6863C59.4899 27.6863 59.4899 27.6863 59.4899 27.6863C59.4899 27.6863 59.4899 27.6863 59.4899 27.6863C59.4899 27.6863 59.4899 27.6863 59.4899 27.6863C59.4899 27.6863 59.4899 27.6863 59.4899 27.6863C59.4899 27.6863 59.4899 27.6863 59.4899 27.6863C59.4899 27.6863 59.4899 27.6863 59.4899 27.6863C59.4899 27.6863 59.4899 27.6863 59.4899 27.6863C59.4899 27.6863 59.4899 27.6863 59.4899 27.6863C59.4899 27.6863 59.4899 27.6863 59.4899 27.6863C59.4899 27.6863 59.4899 27.6863 59.4899 27.6863C59.4899 27.6863 59.4899 27.6863 59.4899 27.6863C59.4899 27.6863 59.4899 27.6863 59.4899 27.6863C59.4899 27.6863 59.4899 27.6863 59.4899 27.6863C59.4899 27.6863 59.4899 27.6863 59.4899 27.6863C59.4899 27.6863 59.4899 27.6863 59.4899 27.6863C59.4899 27.6863 59.4899 27.6863 59.4899 27.6863C59.4899 27.6863 59.4899 27.6863 59.4899 27.6863C59.4899 27.6863 59.4899 27.6863 59.4899 27.6863C59.4899 27.6863 59.4899 27.6863 59.4899 27.6863C59.4899 27.6863 59.4899 27.6863 59.4899 27.6863C59.4899 27.6863 59.4899 27.6863 59.4899 27.6863C59.4899 27.6863 59.4899 27.6863 59.4899 27.6863C59.4899 27.6863 59.4899 27.6863 59.4899 27.6863C59.4899 27.6863 59.4899 27.6863 59.4899 27.6863C59.4899 27.6863 59.4899 27.6863 59.4899 27.6863C59.4899 27.6863 59.4899 27.6863 59.4899 27.6863C59.4899 27.6863 59.4899 27.6863 59.4899 27.6863C59.4899 27.6863 59.4899 27.6863 59.4899 27.6863C59.4899 27.6863 59.4899 27.6863 59.4899 27.6863C59.4899 27.6863 59.4899 27.6863 59.4899 27.6863C59.4899 27.6863 59.4899 27.6863 59.4899 27.6863C59.4899 27.6863 59.4899 27.6863 59.4899 27.6863C59.4899 27.6863 59.4899 27.6863 59.4899 27.6863C59.4899 27.6863 59.4899 27.6863 59.4899 27.6863C59.4899 27.6863 59.4899 27.6863 59.4899 27.6863C59.4899 27.6863 59.4899 27.6863 59.4899 27.6863C59.4899 27.6863 59.4899 27.6863 59.4899 27.6863C59.4899 27.6863 59.4899 27.6863 59.4899 27.6863C59.4899 27.6863 59.4899 27.6863 59.4899 27.6863C59.4899 27.6863 59.4899 27.6863 59.4899 27.6863C59.4899 27.6863 59.4899 27.6863 59.4899 27.6863C59.4899 27.6863 59.4899 27.6863 59.4899 27.6863C59.4899 27.6863 59.4899 27.6863 59.4899 27.6863C59.4899 27.6863 59.4899 27.6863 59.4899 27.6863C59.4899 27.6863 59.4899 27.6863 59.4899 27.6863C59.4899 27.6863 59.4899 27.6863 59.4899 27.6863C59.4899 27.6863 59.4899 27.6863 59.4899 27.6863C59.4899 27.6863 59.4899 27.6863 59.4899 27.6863C59.4899 27.6863 59.4899 27.6863 59.4899 27.6863C59.4899 27.6863 59.4899 27.6863 59.4899 27.6863C59.4899 27.6863 59.4899 27.6863 59.4899 27.6863C59.4899 27.6863 59.4899 27.6863 59.4899 27.6863C59.4899 27.6863 59.4899 27.6863 59.4899 27.6863C59.4899 27.6863 59.4899 27.6863 59.4899 27.6863C59.4899 27.6863 59.4899 27.6863 59.4899 27.6863C59.4899 27.6863 59.4899 27.6863 59.4899 27.6863C59.4899 27.6863 59.4899 27.6863 59.4899 27.6863C59.4899 27.6863 59.4899 27.6863 59.4899 27.6863C59.4899 27.6863 59.4899 27.6863 59.4899 27.6863C59.4899 27.6863 59.4899 27.6863 59.4899 27.6863C59.4899 27.6863 59.4899 27.6863 59.4899 27.6863C59.4899 27.6863 59.4899 27.6863 59.4899 27.6863C59.4899 27.6863 59.4899 27.6863 59.4899 27.6863C59.4899 27.6863 59.4899 27.6863 59.4899 27.6863C59.4899 27.6863 59.4899 27.6863 59.4899 27.6863C59.4899 27.6863 59.4899 27.6863 59.4899 27.6863C59.4899 27.6863 59.4899 27.6863 59.4899 27.6863C59.4899 27.6863 59.4899 27.6863 59.4899 27.6863C59.4899 27.6863 59.4899 27.6863 59.4899 27.6863C59.4899 27.6863 59.4899 27.6863 59.4899 27.6863C59.4899 27.6863 59.4899 27.6863 59.4899 27.6863C59.4899 27.6863 59.4899 27.6863 59.4899 27.6863C59.4899 27.6863 59.4899 27.6863 59.4899 27.6863C59.4899 27.6863 59.4899 27.6863 59.4899 27.6863C59.4899 27.6863 59.4899 27.6863 59.4899 27.6863C59.4899 27.6863 59.4899 27.6863 59.4899 27.6863C59.4899 27.6863 59.4899 27.6863 59.4899 27.6863C59.4899 27.6863 59.4899 27.6863 59.4899 27.6863C59.4899 27.6863 59.4899 27.6863 59.4899 27.6863C59.4899 27.6863 59.4899 27.6863 59.4899 27.6863C59.4899 27.6863 59.4899 27.6863 59.4899 27.6863C59.4899 27.6863 59.4899 27.6863 59.4899 27.6863C59.4899 27.6863 59.4899 27.6863 59.4899 27.6863C59.4899 27.6863 59.4899 27.6863 59.4899 27.6863C59.4899 27.6863 59.4899 27.6863 59.4899 27.6863C59.4899 27.6863 59.4899 27.6863 59.4899 27.6863C59.4899 27.6863 59.4899 27.6863 59.4899 27.6863C59.4899 27.6863 59.4899 27.6863 59.4899 27.6863C59.4899 27.6863 59.4899 27.6863 59.4899 27.6863C59.4899 27.6863 59.4899 27.6863 59.4899 27.6863C59.4899 27.6863 59.4899 27.6863 59.4899 27.6863C59.4899 27.6863 59.4899 27.6863 59.4899 27.6863C59.4899 27.6863 59.4899 27.6863 59.4899 27.6863C59.4899 27.6863 59.4899 27.6863 59.4899 27.6863C59.4899 27.6863 59.4899 27.6863 59.4899 27.6863C59.4899 27.6863 59.4899 27.6863 59.4899 27.6863C59.4899 27.6863 59.4899 27.6863 59.4899 27.6863C59.4899 27.6863 59.4899 27.6863 59.4899 27.6863C59.4899 27.6863 59.4899 27.6863 59.4899 27.6863C59.4899 27.6863 59.4899 27.6863 59.4899 27.6863C59.4899 27.6863 59.4899 27.6863 59.4899 27.6863C59.4899 27.6863 59.4899 27.6863 59.4899 27.6863C59.4899 27.6863 59.4899 27.6863 59.4899 27.6863C59.4899 27.6863 59.4899 27.6863 59.4899 27.6863C59.4899 27.6863 59.4899 27.6863 59.4899 27.6863C59.4899 27.6863 59.4899 27.6863 59.4899 27.6863C59.4899 27.6863 59.4899 27.6863 59.4899 27.6863C59.4899 27.6863 59.4899 27.6863 59.4899 27.6863C59.4899 27.6863 59.4899 27.6863 59.4899 27.6863C59.4899 27.6863 59.4899 27.6863 59.4899 27.6863C59.4899 27.6863 59.4899 27.6863 59.4899 27.6863C59.4899 27.6863 59.4899 27.6863 59.4899 27.6863C59.4899 27.6863 59.4899 27.6863 59.4899 27.6863C59.4899 27.6863 59.4899 27.6863 59.4899 27.6863C59.4899 27.6863 59.4899 27.6863 59.4899 27.6863C59.4899 27.6863 59.4899 27.6863 59.4899 27.6863C59.4899 27.6863 59.4899 27.6863 59.4899 27.6863C59.4899 27.6863 59.4899 27.6863 59.4899 27.6863C59.4899 27.6863 59.4899 27.6863 59.4899 27.6863C59.4899 27.6863 59.4899 27.6863 59.4899 27.6863C59.4899 27.6863 59.4899 27.6863 59.4899 27.6863C59.4899 27.6863 59.4899 27.6863 59.4899 27.6863C59.4899 27.6863 59.4899 27.6863 59.4899 27.6863C59.4899 27.6863 59.4899 27.6863 59.4899 27.6863C59.4899 27.6863 59.4899 27.6863 59.4899 27.6863C59.4899 27.6863 59.4899 27.6863 59.4899 27.6863C59.4899 27.6863 59.4899 27.6863 59.4899 27.6863C59.4899 27.6863 59.4899 27.6863 59.4899 27.6863C59.4899 27.6863 59.4899 27.6863 59.4899 27.6863C59.4899 27.6863 59.4899 27.6863 59.4899 27.6863C59.4899 27.6863 59.4899 27.6863 59.4899 27.6863C59.4899 27.6863 59.4899 27.6863 59.4899 27.6863C59.4899 27.6863 59.4899 27.6863 59.4899 27.6863C59.4899 27.6863 59.4899 27.6863 59.4899 27.6863C59.4899 27.6863 59.4899 27.6863 59.4899 27.6863C59.4899 27.6863 59.4899 27.6863 59.4899 27.6863C59.4899 27.6863 59.4899 27.6863 59.4899 27.6863C59.4899 27.6863 59.4899 27.6863 59.4899 27.6863C59.4899 27.6863 59.4899 27.6863 59.4899 27.6863C59.4899 27.6863 59.4899 27.6863 59.4899 27.6863C59.4899 27.6863 59.4899 27.6863 59.4899 27.6863C59.4899 27.6863 59.4899 27.6863 59.4899 27.6863C59.4899 27.6863 59.4899 27.6863 59.4899 27.6863C59.4899 27.6863 59.4899 27.6863 59.4899 27.6863C59.4899 27.6863 59.4899 27.6863 59.4899 27.6863C59.4899 27.6863 59.4899 27.6863 59.4899 27.6863C59.4899 27.6863 59.4899 27.6863 59.4899 27.6863C59.4899 27.6863 59.4899 27.6863 59.4899 27.6863C59.4899 27.6863 59.4899 27.6863 59.4899 27.6863C59.4899 27.6863 59.4899 27.6863 59.4899 27.6863C59.4899 27.6863 59.4899 27.6863 59.4899 27.6863C59.4899 27.6863 59.4899 27.6863 59.4899 27.6863C59.4899 27.6863 59.4899 27.6863 59.4899 27.6863C59.4899 27.6863 59.4899 27.6863 59.4899 27.6863C59.4899 27.6863 59.4899 27.6863 59.4899 27.6863C59.4899 27.6863 59.4899 27.6863 59.4899 27.6863C59.4899 27.6863 59.4899 27.6863 59.4899 27.6863C59.4899 27.6863 59.4899 27.6863 59.4899 27.6863C59.4899 27.6863 59.4899 27.6863 59.4899 27.6863C59.4899 27.6863 59.4899 27.6863 59.4899 27.6863C59.4899 27.6863 59.4899 27.6863 59.4899 27.6863C59.4899 27.6863 59.4899 27.6863 59.4899 27.6863C59.4899 27.6863 59.4899 27.6863 59.4899 27.6863C59.4899 27.6863 59.4899 27.6863 59.4899 27.6863C59.4899 27.6863 59.4899 27.6863 59.4899 27.6863C59.4899 27.6863 59.4899 27.6863 59.4899 27.6863C59.4899 27.6863 59.4899 27.6863 59.4899 27.6863C59.4899 27.6863 59.4899 27.6863 59.4899 27.6863C59.4899 27.6863 59.4899 27.6863 59.4899 27.6863C59.4899 27.6863 59.4899 27.6863 59.4899 27.6863C59.4899 27.6863 59.4899 27.6863 59.4899 27.6863C59.4899 27.6863 59.4899 27.6863 59.4899 27.6863C59.4899 27.6863 59.4899 27.6863 59.4899 27.6863C59.4899 27.6863 59.4899 27.6863 59.4899 27.6863C59.4899 27.6863 59.4899 27.6863 59.4899 27.6863C59.4899 27.6863 59.4899 27.6863 59.4899 27.6863C59.4899 27.6863 59.4899 27.6863 59.4899 27.6863C59.4899 27.6863 59.4899 27.6863 59.4899 27.6863C59.4899 27.6863 59.4899 27.6863 59.4899 27.6863C59.4899 27.6863 59.4899 27.6863 59.4899 27.6863C59.4899 27.6863 59.4899 27.6863 59.4899 27.6863C59.4899 27.6863 59.4899 27.6863 59.4899 27.6863C59.4899 27.6863 59.4899 27.6863 59.4899 27.6863C59.4899 27.6863 59.4899 27.6863 59.4899 27.6863C59.4899 27.6863 59.4899 27.6863 59.4899 27.6863C59.4899 27.6863 59.4899 27.6863 59.4899 27.6863C59.4899 27.6863 59.4899 27.6863 59.4899 27.6863C59.4899 27.6863 59.4899 27.6863 59.4899 27.6863C59.4899 27.6863 59.4899 27.6863 59.4899 27.6863C59.4899 27.6863 59.4899 27.6863 59.4899 27.6863C59.4899 27.6863 59.4899 27.6863 59.4899 27.6863C59.4899 27.6863 59.4899 27.6863 59.4899 27.6863C59.4899 27.6863 59.4899 27.6863 59.4899 27.6863C59.4899 27.6863 59.4899 27.6863 59.4899 27.6863C59.4899 27.6863 59.4899 27.6863 59.4899 27.6863C59.4899 27.6863 59.4899 27.6863 59.4899 27.6863C59.4899 27.6863 59.4899 27.6863 59.4899 27.6863C59.4899 27.6863 59.4899 27.6863 59.4899 27.6863C59.4899 27.6863 59.4899 27.6863 59.4899 27.6863C59.4899 27.6863 59.4899 27.6863 59.4899 27.6863C59.4899 27.6863 59.4899 27.6863 59.4899 27.6863C59.4899 27.6863 59.4899 27.6863 59.4899 27.6863C59.4899 27.6863 59.4899 27.6863 59.4899 27.6863C59.4899 27.6863 59.4899 27.6863 59.4899 27.6863C59.4899 27.6863 59.4899 27.6863 59.4899 27.6863C59.4899 27.6863 59.4899 27.6863 59.4899 27.6863C59.4899 27.6863 59.4899 27.6863 59.4899 27.6863C59.4899 27.6863 59.4899 27.6863 59.4899 27.6863C59.4899 27.6863 59.4899 27.6863 59.4899 27.6863C59.4899 27.6863 59.4899 27.6863 59.4899 27.6863C59.4899 27.6863 59.4899 27.6863 59.4899 27.6863C59.4899 27.6863 59.4899 27.6863 59.4899 27.6863C59.4899 27.6863 59.4899 27.6863 59.4899 27.6863C59.4899 27.6863 59.4899 27.6863 59.4899 27.6863C59.4899 27.6863 59.4899 27.6863 59.4899 27.6863C59.4899 27.6863 59.4899 27.6863 59.4899 27.6863C59.4899 27.6863 59.4899 27.6863 59.4899 27.6863C59.4899 27.6863 59.4899 27.6863 59.4899 27.6863C59.4899 27.6863 59.4899 27.6863 59.4899 27.6863C59.4899 27.6863 59.4899 27.6863 59.4899 27.6863C59.4899 27.6863 59.4899 27.6863 59.4899 27.6863C59.4899 27.6863 59.4899 27.6863 59.4899 27.6863C59.4899 27.6863 59.4899 27.6863 59.4899 27.6863C59.4899 27.6863 59.4899 27.6863 59.4899 27.6863C59.4899 27.6863 59.4899 27.6863 59.4899 27.6863C59.4899 27.6863 59.4899 27.6863 59.4899 27.6863C59.4899 27.6863 59.4899 27.6863 59.4899 27.6863C59.4899 27.6863 59.4899 27.6863 59.4899 27.6863C59.4899 27.6863 59.4899 27.6863 59.4899 27.6863C59.4899 27.6863 59.4899 27.6863 59.4899 27.6863C59.4899 27.6863 59.4899 27.6863 59.4899 27.6863C59.4899 27.6863 59.4899 27.6863 59.4899 27.6863C59.4899 27.6863 59.4899 27.6863 59.4899 27.6863C59.4899 27.6863 59.4899 27.6863 59.4899 27.6863C59.4899 27.6863 59.4899 27.6863 59.4899 27.6863C59.4899 27.6863 59.4899 27.6863 59.4899 27.6863C59.4899 27.6863 59.4899 27.6863 59.4899 27.6863C59.4899 27.6863 59.4899 27.6863 59.4899 27.6863C59.4899 27.6864 59.4899 27.6864 59.4899 27.6864C59.4899 27.6864 59.4899 27.6864 59.4899 27.6864C59.4899 27.6864 59.4899 27.6864 59.4899 27.6864C59.4899 27.6864 59.4899 27.6864 59.4899 27.6864C59.4899 27.6864 59.4899 27.6864 59.4899 27.6864C59.4899 27.6864 59.4899 27.6864 59.4899 27.6864C59.4899 27.6864 59.4899 27.6864 59.4899 27.6864C59.4899 27.6864 59.4899 27.6864 59.4899 27.6864C59.4899 27.6864 59.4899 27.6864 59.4899 27.6864C59.4899 27.6864 59.4899 27.6864 59.4899 27.6864C59.4899 27.6864 59.4899 27.6864 59.4899 27.6864C59.4899 27.6864 59.4899 27.6864 59.4899 27.6864C59.4899 27.6864 59.4899 27.6864 59.4899 27.6864C59.4899 27.6864 59.4899 27.6864 59.4899 27.6864C59.4899 27.6864 59.4899 27.6864 59.4899 27.6864C59.4899 27.6864 59.4899 27.6864 59.4899 27.6864C59.4899 27.6864 59.4899 27.6864 59.4899 27.6864C59.4899 27.6864 59.4899 27.6864 59.4899 27.6864C59.4899 27.6864 59.4899 27.6864 59.4899 27.6864C59.4899 27.6864 59.4899 27.6864 59.4899 27.6864C59.4899 27.6864 59.4899 27.6864 59.4899 27.6864C59.4899 27.6864 59.4899 27.6864 59.4899 27.6864C59.4899 27.6864 59.4899 27.6864 59.4899 27.6864C59.4899 27.6864 59.4899 27.6864 59.4899 27.6864C59.4899 27.6864 59.4899 27.6864 59.4899 27.6864C59.4899 27.6864 59.4899 27.6864 59.4899 27.6864C59.4899 27.6864 59.4899 27.6864 59.4899 27.6864C59.4899 27.6864 59.4899 27.6864 59.4899 27.6864C59.4899 27.6864 59.4899 27.6864 59.4899 27.6864C59.4899 27.6864 59.4899 27.6864 59.4899 27.6864C59.4899 27.6864 59.4899 27.6864 59.4899 27.6864C59.4899 27.6864 59.4899 27.6864 59.4899 27.6864C59.4899 27.6864 59.4899 27.6864 59.4899 27.6864C59.4899 27.6864 59.4899 27.6864 59.4899 27.6864C59.4899 27.6864 59.4899 27.6864 59.4899 27.6864C59.4899 27.6864 59.4899 27.6864 59.4899 27.6864C59.4899 27.6864 59.4899 27.6864 59.4899 27.6864C59.4899 27.6864 59.4899 27.6864 59.4899 27.6864C59.4899 27.6864 59.4899 27.6864 59.4899 27.6864C59.4899 27.6864 59.4899 27.6864 59.4899 27.6864C59.4899 27.6864 59.4899 27.6864 59.4899 27.6864C59.4899 27.6864 59.4899 27.6864 59.4899 27.6864C59.4899 27.6864 59.4899 27.6864 59.4899 27.6864C59.4899 27.6864 59.4899 27.6864 59.4899 27.6864C59.4899 27.6864 59.4899 27.6864 59.4899 27.6864C59.4899 27.6864 59.4899 27.6864 59.4899 27.6864C59.4899 27.6864 59.4899 27.6864 59.4899 27.6864C59.4899 27.6864 59.4899 27.6864 59.4899 27.6864C59.4899 27.6864 59.4899 27.6864 59.4899 27.6864C59.4899 27.6864 59.4899 27.6864 59.4899 27.6864H60.4899ZM59.9899 27.1864H59.9899V28.1864H59.9899V27.1864ZM59.4899 27.6864V29.1326H60.4899V27.6864H59.4899ZM59.9899 29.6326H67.221V28.6326H59.9899V29.6326ZM67.721 29.1326V27.6864H66.721V29.1326H67.721ZM67.221 27.1864H67.2204V28.1864H67.221V27.1864ZM67.0778 27.2071L67.0771 27.2073L67.3637 28.1654L67.3643 28.1652L67.0778 27.2071ZM68.1854 23.6303C67.6151 24.5645 66.721 26.1266 66.721 27.6862H67.721C67.721 26.4439 68.4555 25.1071 69.0389 24.1514L68.1854 23.6303Z" fill="#333333"/>
<path d="M59.9902 29.1318H67.2213V32.0243H59.9902V29.1318Z" fill="#38C1C9" stroke="#333333" stroke-linecap="round" stroke-linejoin="round"/>
<path d="M67.2213 32.0247C67.2213 32.4995 67.1278 32.9697 66.9461 33.4083C66.7644 33.847 66.4981 34.2456 66.1624 34.5813C65.8266 34.917 65.4281 35.1834 64.9894 35.3651C64.5507 35.5468 64.0806 35.6403 63.6058 35.6403C63.131 35.6403 62.6608 35.5468 62.2222 35.3651C61.7835 35.1834 61.3849 34.917 61.0492 34.5813C60.7135 34.2456 60.4471 33.847 60.2655 33.4083C60.0838 32.9697 59.9902 32.4995 59.9902 32.0247L63.6058 32.0247H67.2213Z" fill="#0598A8" stroke="#333333" stroke-linecap="round" stroke-linejoin="round"/>
<line x1="56.3905" y1="11.7773" x2="54.2052" y2="9.59201" stroke="#333333" stroke-linecap="round" stroke-linejoin="round"/>
<line x1="0.5" y1="-0.5" x2="3.59053" y2="-0.5" transform="matrix(-0.707107 0.707107 0.707107 0.707107 55.6521 26.2393)" stroke="#333333" stroke-linecap="round" stroke-linejoin="round"/>
<line x1="0.5" y1="-0.5" x2="3.59053" y2="-0.5" transform="matrix(0.707107 -0.707107 -0.707107 -0.707107 70.114 11.7773)" stroke="#333333" stroke-linecap="round" stroke-linejoin="round"/>
<line x1="72.2669" y1="26.2393" x2="74.4523" y2="28.4246" stroke="#333333" stroke-linecap="round" stroke-linejoin="round"/>
<line x1="0.5" y1="-0.5" x2="3.59053" y2="-0.5" transform="matrix(1 0 0 -1 73.0066 17.562)" stroke="#333333" stroke-linecap="round" stroke-linejoin="round"/>
<line x1="0.5" y1="-0.5" x2="3.59053" y2="-0.5" transform="matrix(1 0 0 -1 49.8667 17.562)" stroke="#333333" stroke-linecap="round" stroke-linejoin="round"/>
<line x1="0.5" y1="-0.5" x2="3.59053" y2="-0.5" transform="matrix(-4.37114e-08 -1 -1 4.37114e-08 62.8831 10.0825)" stroke="#333333" stroke-linecap="round" stroke-linejoin="round"/>
<line x1="50.094" y1="40.1743" x2="74.8258" y2="40.1743" stroke="#333333" stroke-linecap="round" stroke-linejoin="round"/>
<line x1="50.094" y1="45.7681" x2="74.8258" y2="45.7681" stroke="#333333" stroke-linecap="round" stroke-linejoin="round"/>
<line x1="50.094" y1="51.3628" x2="66.9944" y2="51.3628" stroke="#333333" stroke-linecap="round" stroke-linejoin="round"/>
<line x1="50.094" y1="56.9561" x2="62.5193" y2="56.9561" stroke="#333333" stroke-linecap="round" stroke-linejoin="round"/>
<path d="M91.6471 29.0168L93.5652 30.9349C94.151 31.5207 94.151 32.4705 93.5652 33.0562L73.8978 52.7237L69.8583 48.6843L89.5258 29.0168C90.1116 28.431 91.0613 28.431 91.6471 29.0168Z" fill="#38C1C9" stroke="#333333"/>
<path d="M67.3606 51.2463L69.7339 48.873L73.6894 52.8285L71.3161 55.2018L65.5411 57.3377L67.3606 51.2463Z" fill="#FFFAEB" stroke="#333333" stroke-linecap="round" stroke-linejoin="round"/>
<line x1="66.9236" y1="53.2656" x2="69.2969" y2="55.6389" stroke="#333333"/>
</svg>
