<svg width="132" height="78" viewBox="0 0 132 78" fill="none" xmlns="http://www.w3.org/2000/svg">
<path d="M67.4626 21.8045V25.2563H71.0908V29.8709H82.5738V37.3559H86.2394V42.2249L90.466 44.0416L93.0843 33.9041L92.5606 32.814L86.9501 25.0746L85.8279 22.1678L81.0777 20.2421L80.741 17.5896L74.532 14.8281L73.5969 15.1551L68.2481 18.607L67.4626 21.8045Z" fill="#FFAE00"/>
<path d="M81.0777 20.2421L80.741 17.5896L74.532 14.8281L73.5969 15.1551L68.2481 18.607L67.4626 21.8045V25.2563H71.0908V29.8709H82.5738V37.3559H86.2394V42.2249L90.466 44.0416L93.0843 33.9041L92.5606 32.814L86.9501 25.0746L85.8279 22.1678L81.0777 20.2421ZM81.0777 20.2421L79.3702 23.7951" stroke="#333333" stroke-linecap="round" stroke-linejoin="round"/>
<path d="M67.4626 52.9804V42.4795H77.8983L79.2449 48.2568H87.8852V60.0657L87.6607 60.4291L82.7982 66.061H81.7883V58.1763H76.7388V52.9804H67.4626Z" fill="#FFAE00" stroke="#333333" stroke-linecap="round" stroke-linejoin="round"/>
<path d="M67.4241 42.4429V25.0747H71.1645V29.9436H74.9553H82.6849V37.3923H86.4252V42.1522L89.9786 43.751L92.9335 45.0954V53.6705C91.7665 56.1122 89.0061 57.1345 87.7718 57.3404V48.2202H79.3559L77.7101 42.4429H74.9553H67.4241Z" fill="#FF8C00"/>
<path d="M79.3559 48.2202L77.7101 42.4429H74.9553M79.3559 48.2202H87.7718V57.3404C89.0061 57.1345 91.7665 56.1122 92.9335 53.6705V45.0954L89.9786 43.751L86.4252 42.1522V37.3923H82.6849M79.3559 48.2202L77.7101 51.1919M82.6849 37.3923V29.9436H74.9553M82.6849 37.3923H77.05M74.9553 39.4919V42.4429M74.9553 42.4429H67.4241V25.0747H71.1645V29.9436H74.9553M74.9553 35.1317V29.9436" stroke="#333333" stroke-linecap="round" stroke-linejoin="round"/>
<path d="M67.3877 60.8651V52.9077H76.7761V58.2853H81.7882V66.0974H70.4548L67.3877 60.8651Z" fill="#FF8C00" stroke="#333333" stroke-linecap="round" stroke-linejoin="round"/>
<path d="M77.0883 15.4192C77.0883 16.8555 75.8856 18.0444 74.3712 18.0444C72.8568 18.0444 71.6541 16.8555 71.6541 15.4192C71.6541 13.9829 72.8568 12.7939 74.3712 12.7939C75.8856 12.7939 77.0883 13.9829 77.0883 15.4192Z" fill="#FFEF85" stroke="#333333"/>
<path d="M89.1005 23.7761C89.1005 25.2124 87.8978 26.4013 86.3834 26.4013C84.869 26.4013 83.6663 25.2124 83.6663 23.7761C83.6663 22.3398 84.869 21.1509 86.3834 21.1509C87.8978 21.1509 89.1005 22.3398 89.1005 23.7761Z" fill="#FFEF85" stroke="#333333"/>
<path d="M85.3137 29.967C85.3137 31.4033 84.1109 32.5922 82.5965 32.5922C81.0821 32.5922 79.8794 31.4033 79.8794 29.967C79.8794 28.5307 81.0821 27.3418 82.5965 27.3418C84.1109 27.3418 85.3137 28.5307 85.3137 29.967Z" fill="#FFEF85" stroke="#333333"/>
<path d="M94.9777 33.5549C94.9777 34.9912 93.775 36.1801 92.2606 36.1801C90.7462 36.1801 89.5435 34.9912 89.5435 33.5549C89.5435 32.1186 90.7462 30.9297 92.2606 30.9297C93.775 30.9297 94.9777 32.1186 94.9777 33.5549Z" fill="#FFEF85" stroke="#333333"/>
<path d="M77.5844 37.1931C77.5844 38.6294 76.3817 39.8183 74.8673 39.8183C73.3529 39.8183 72.1501 38.6294 72.1501 37.1931C72.1501 35.7568 73.3529 34.5679 74.8673 34.5679C76.3817 34.5679 77.5844 35.7568 77.5844 37.1931Z" fill="#FFEF85" stroke="#333333"/>
<path d="M90.4653 48.2024C90.4653 49.6387 89.2625 50.8276 87.7481 50.8276C86.2337 50.8276 85.031 49.6387 85.031 48.2024C85.031 46.7661 86.2337 45.5771 87.7481 45.5771C89.2625 45.5771 90.4653 46.7661 90.4653 48.2024Z" fill="#FFEF85" stroke="#333333"/>
<path d="M95.0119 53.7302C95.0119 55.1665 93.8091 56.3554 92.2948 56.3554C90.7804 56.3554 89.5776 55.1665 89.5776 53.7302C89.5776 52.2939 90.7804 51.105 92.2948 51.105C93.8091 51.105 95.0119 52.2939 95.0119 53.7302Z" fill="#FFEF85" stroke="#333333"/>
<path d="M90.1633 59.4255C90.1633 60.8618 88.9605 62.0507 87.4461 62.0507C85.9317 62.0507 84.729 60.8618 84.729 59.4255C84.729 57.9892 85.9317 56.8003 87.4461 56.8003C88.9605 56.8003 90.1633 57.9892 90.1633 59.4255Z" fill="#FFEF85" stroke="#333333"/>
<path d="M79.5546 52.9172C79.5546 54.3535 78.3519 55.5424 76.8375 55.5424C75.3231 55.5424 74.1204 54.3535 74.1204 52.9172C74.1204 51.4809 75.3231 50.292 76.8375 50.292C78.3519 50.292 79.5546 51.4809 79.5546 52.9172Z" fill="#FFEF85" stroke="#333333"/>
<path d="M73.8012 65.8752C73.8012 67.3115 72.5985 68.5004 71.0841 68.5004C69.5697 68.5004 68.3669 67.3115 68.3669 65.8752C68.3669 64.4389 69.5697 63.25 71.0841 63.25C72.5985 63.25 73.8012 64.4389 73.8012 65.8752Z" fill="#FFEF85" stroke="#333333"/>
<path d="M84.5053 65.8752C84.5053 67.3115 83.3026 68.5004 81.7882 68.5004C80.2738 68.5004 79.071 67.3115 79.071 65.8752C79.071 64.4389 80.2738 63.25 81.7882 63.25C83.3026 63.25 84.5053 64.4389 84.5053 65.8752Z" fill="#FFEF85" stroke="#333333"/>
<path d="M63.0079 60.2774V19.8727C63.1076 17.7289 62.0952 13.7248 57.2477 14.8584C52.4001 15.9921 52.7406 20.2077 53.5168 22.1738C52.4813 21.6104 50.9991 21.3532 50.2157 21.2897C41.0593 22.1618 40.8897 28.799 41.9495 32.0086C34.9475 35.4677 37.9294 40.5524 40.2956 42.6624C39.7169 43.0437 39.3007 43.4299 39.0694 43.7086C34.1021 49.6385 39.219 55.1057 42.5105 57.1889C42.0916 66.2582 49.0437 65.8004 52.46 64.3469L53.1332 65.0736C60.6738 68.9106 62.8582 63.4749 63.0079 60.2774Z" fill="#FFEF85"/>
<path d="M52.46 64.3469L53.1332 65.0736C60.6739 68.9106 62.8582 63.4749 63.0079 60.2774V19.8727C63.1076 17.7289 62.0952 13.7248 57.2477 14.8584C52.4001 15.9921 52.7406 20.2077 53.5168 22.1738M52.46 64.3469C53.3327 63.6445 55.0333 61.7453 54.8538 59.7687M52.46 64.3469C49.0437 65.8004 42.0916 66.2582 42.5105 57.1889M42.5105 57.1889C43.2337 57.4069 44.7174 57.3851 45.0166 56.8619M42.5105 57.1889C39.219 55.1057 34.1021 49.6385 39.0694 43.7086C39.3007 43.4299 39.7169 43.0437 40.2956 42.6624M44.5303 41.3104C42.7238 41.3836 41.2763 42.0161 40.2956 42.6624M40.2956 42.6624C37.9294 40.5524 34.9475 35.4677 41.9495 32.0086M41.9495 32.0086C42.0617 32.4083 42.3534 33.2295 42.6227 33.3167M41.9495 32.0086C40.8897 28.799 41.0593 22.1618 50.2157 21.2897C50.9991 21.3532 52.4813 21.6104 53.5168 22.1738M54.3676 22.8522C54.1639 22.5884 53.8657 22.3637 53.5168 22.1738" stroke="#333333" stroke-linecap="round" stroke-linejoin="round"/>
<path d="M50.8145 26.702C52.0204 26.5197 53.9407 26.7553 54.5034 28.4752M54.4052 31.2802C54.7361 30.0687 54.726 29.1558 54.5034 28.4752M54.5034 28.4752C55.2063 28.7683 56.8888 28.962 57.996 27.3923" stroke="#333333" stroke-linecap="round" stroke-linejoin="round"/>
<path d="M52.3322 47.1199C52.2573 45.4458 52.8984 42.8625 55.4732 42.3637M59.5138 42.9364C57.8138 42.2955 56.4921 42.1664 55.4732 42.3637M55.4732 42.3637C56.007 41.4505 56.5504 39.1849 54.4539 37.4286" stroke="#333333" stroke-linecap="round" stroke-linejoin="round"/>
<path d="M48.5821 51.5288C49.5642 51.898 50.8945 52.8789 50.5511 54.3999M49.232 56.4548C50.0173 55.6882 50.4152 55.0017 50.5511 54.3999M50.5511 54.3999C50.9462 54.9135 52.1175 55.7634 53.6419 55.0545" stroke="#333333" stroke-linecap="round" stroke-linejoin="round"/>
<path d="M46.2254 33.9762C46.5108 34.6371 46.6477 35.7657 45.6907 36.3364M43.9824 36.6883C44.7621 36.7007 45.3121 36.5623 45.6907 36.3364M45.6907 36.3364C45.6159 36.7797 45.7435 37.7668 46.8524 38.1696" stroke="#333333" stroke-linecap="round" stroke-linejoin="round"/>
</svg>
