<svg width="132" height="78" viewBox="0 0 132 78" fill="none" xmlns="http://www.w3.org/2000/svg">
<path d="M57.7884 10.2827L44.0356 23.9642L46.0665 26.0664L52.4085 27.1352L59.9618 24.1424L60.7456 13.3112L57.7884 10.2827Z" fill="#0598A8" stroke="#333333" stroke-linecap="round" stroke-linejoin="round"/>
<path d="M53.121 23.9999H44V40.6742V67.7522C44 70.3745 46.3753 71.2201 47.5629 71.3151H54.4037H84.8664C87.9733 71.3151 88.75 67.681 88.75 65.8639V15.342C88.75 11.2661 86.0184 10.2471 84.6527 10.2471H57.824V19.4393C57.824 22.9737 54.6887 23.9524 53.121 23.9999Z" fill="#E6FEFC" stroke="#333333" stroke-linecap="round" stroke-linejoin="round"/>
<path d="M68.8335 38.7676C70.7717 38.7676 71.5413 36.6298 71.6838 35.561V33.1382H76.173C78.2823 33.1382 79.0946 34.9434 79.2371 35.846V41.2616C79.2371 43.2568 77.1944 44.3732 76.173 44.682H71.6838V49.5275C71.6838 50.6106 70.2111 51.6415 69.4748 52.0215H62.9903C60.7671 52.0215 60.2588 49.9788 60.2825 48.9575V42.6868C60.2825 39.8934 62.0877 38.9101 62.9903 38.7676H68.8335Z" fill="#FFEF85"/>
<path d="M71.6838 44.682C71.6838 45.8459 71.6838 48.4444 71.6838 49.5275C71.6838 50.6106 70.2111 51.6415 69.4748 52.0215C68.2396 52.0215 65.2136 52.0215 62.9903 52.0215C60.7671 52.0215 60.2588 49.9788 60.2825 48.9575C60.2825 48.0311 60.2825 45.4801 60.2825 42.6868C60.2825 39.8934 62.0877 38.9101 62.9903 38.7676C64.1305 38.7676 66.8953 38.7676 68.8335 38.7676C70.7717 38.7676 71.5413 36.6298 71.6838 35.561V33.1382H76.173C78.2823 33.1382 79.0946 34.9434 79.2371 35.846V41.2616C79.2371 43.2568 77.1944 44.3732 76.173 44.682H71.6838ZM71.6838 44.682H66.0544" stroke="#333333" stroke-linecap="round" stroke-linejoin="round"/>
<path d="M55.8299 44.9721H60.2479V42.3712C60.2479 39.8629 62.3143 39.1646 63.3476 39.129H68.9057C71.186 39.129 71.851 36.6824 71.8985 35.4592V33.4996V29.1529C71.8985 26.6446 69.6896 25.8987 68.5851 25.8394H63.0269C60.8322 25.8394 60.2597 28.0484 60.2479 29.1529V33.2502H55.8299C53.3216 33.2502 52.7183 35.3879 52.7302 36.4568V41.4805C52.7302 44.2168 54.7966 44.9484 55.8299 44.9721Z" fill="#38C1C9"/>
<path d="M60.2479 33.2502C59.8203 33.2502 58.3382 33.2502 55.8299 33.2502C53.3216 33.2502 52.7183 35.3879 52.7302 36.4568V41.4805C52.7302 44.2168 54.7966 44.9484 55.8299 44.9721H60.2479V42.3712C60.2479 39.8629 62.3143 39.1646 63.3476 39.129C64.2502 39.129 66.6255 39.129 68.9057 39.129C71.186 39.129 71.851 36.6824 71.8985 35.4592V33.4996C71.8985 33.0958 71.8985 31.6611 71.8985 29.1529C71.8985 26.6446 69.6895 25.8987 68.5851 25.8394H63.0269C60.8322 25.8394 60.2597 28.0484 60.2479 29.1529V33.2502ZM60.2479 33.2502H66.1267" stroke="#333333" stroke-linecap="round" stroke-linejoin="round"/>
<circle cx="65.3425" cy="29.591" r="0.71258" fill="#333333"/>
<circle cx="66.7678" cy="48.1647" r="0.71258" fill="#333333"/>
<path d="M60.259 63.5015C60.678 63.5015 61.0367 63.1535 61.0403 62.7202C61.0367 62.2941 60.678 61.9461 60.259 61.9461C59.8258 61.9461 59.4742 62.2941 59.4778 62.7202C59.4742 63.1535 59.8258 63.5015 60.259 63.5015ZM62.5675 65.4688H63.853V62.564H63.9063C64.1087 62.9617 64.5313 63.5192 65.4688 63.5192C66.7543 63.5192 67.7166 62.5 67.7166 60.7032C67.7166 58.885 66.7259 57.8978 65.4652 57.8978C64.5029 57.8978 64.1016 58.4766 63.9063 58.8708H63.8317V57.9688H62.5675V65.4688ZM63.8281 60.6961C63.8281 59.6378 64.2827 58.9525 65.1101 58.9525C65.9659 58.9525 66.4063 59.6804 66.4063 60.6961C66.4063 61.7188 65.9588 62.4645 65.1101 62.4645C64.2898 62.4645 63.8281 61.7543 63.8281 60.6961ZM69.631 65.4581C70.6324 65.4581 71.2112 64.9397 71.5202 64.0839L73.7112 57.9759L72.3369 57.9688L71.0763 62.0881H71.0194L69.7623 57.9688H68.3987L70.3767 63.537L70.2666 63.8317C70.0216 64.4354 69.6523 64.4816 69.0912 64.3218L68.7929 65.3196C68.9669 65.3942 69.2794 65.4581 69.631 65.4581Z" fill="#333333"/>
</svg>
