<?xml version="1.0" encoding="UTF-8"?>
<svg xmlns="http://www.w3.org/2000/svg" xmlns:xlink="http://www.w3.org/1999/xlink" viewBox="0 0 24 24" width="24px" height="24px">
<g id="surface107999730">
<path style=" stroke:none;fill-rule:nonzero;fill:rgb(100%,100%,100%);fill-opacity:1;" d="M 16.425781 2.625 C 13.554688 2.625 11.21875 4.960938 11.21875 7.828125 C 11.21875 8.003906 11.261719 8.171875 11.28125 8.339844 C 7.730469 8 4.59375 6.289062 2.460938 3.675781 C 2.359375 3.550781 2.207031 3.480469 2.046875 3.492188 C 1.886719 3.503906 1.742188 3.597656 1.664062 3.734375 C 1.21875 4.503906 0.960938 5.390625 0.960938 6.34375 C 0.960938 7.5 1.371094 8.554688 2.011719 9.421875 C 1.886719 9.367188 1.75 9.335938 1.636719 9.269531 C 1.488281 9.191406 1.308594 9.195312 1.164062 9.28125 C 1.019531 9.367188 0.933594 9.523438 0.929688 9.691406 L 0.929688 9.75 C 0.929688 11.519531 1.84375 13.054688 3.195312 13.996094 C 3.179688 13.992188 3.164062 14 3.148438 13.996094 C 2.984375 13.96875 2.816406 14.023438 2.707031 14.152344 C 2.597656 14.277344 2.5625 14.449219 2.609375 14.609375 C 3.144531 16.277344 4.515625 17.550781 6.210938 18.015625 C 4.859375 18.816406 3.292969 19.289062 1.605469 19.289062 C 1.238281 19.289062 0.890625 19.269531 0.539062 19.230469 C 0.316406 19.199219 0.0976562 19.332031 0.0234375 19.546875 C -0.0507812 19.757812 0.03125 19.996094 0.226562 20.113281 C 2.390625 21.503906 4.960938 22.320312 7.726562 22.320312 C 12.203125 22.320312 15.71875 20.449219 18.074219 17.773438 C 20.433594 15.101562 21.660156 11.628906 21.660156 8.386719 C 21.660156 8.25 21.648438 8.113281 21.644531 7.980469 C 22.523438 7.308594 23.308594 6.515625 23.925781 5.59375 C 24.046875 5.417969 24.035156 5.179688 23.894531 5.015625 C 23.753906 4.847656 23.519531 4.796875 23.324219 4.890625 C 23.078125 5 22.789062 5.011719 22.53125 5.101562 C 22.871094 4.644531 23.164062 4.152344 23.339844 3.601562 C 23.398438 3.410156 23.335938 3.203125 23.179688 3.078125 C 23.023438 2.957031 22.804688 2.941406 22.636719 3.046875 C 21.816406 3.53125 20.90625 3.871094 19.949219 4.078125 C 19.019531 3.210938 17.796875 2.625 16.425781 2.625 Z M 16.425781 3.585938 C 17.648438 3.585938 18.753906 4.109375 19.53125 4.933594 C 19.644531 5.054688 19.816406 5.105469 19.980469 5.070312 C 20.605469 4.945312 21.199219 4.765625 21.78125 4.53125 C 21.445312 4.980469 21.035156 5.363281 20.550781 5.65625 C 20.332031 5.761719 20.226562 6.015625 20.308594 6.246094 C 20.386719 6.472656 20.625 6.609375 20.863281 6.554688 C 21.34375 6.496094 21.773438 6.300781 22.230469 6.179688 C 21.820312 6.625 21.371094 7.027344 20.878906 7.378906 C 20.746094 7.476562 20.671875 7.636719 20.683594 7.800781 C 20.691406 7.996094 20.699219 8.1875 20.699219 8.386719 C 20.699219 11.386719 19.546875 14.640625 17.355469 17.128906 C 15.160156 19.617188 11.941406 21.359375 7.726562 21.359375 C 5.8125 21.359375 4.003906 20.9375 2.371094 20.191406 C 4.394531 20.035156 6.261719 19.316406 7.769531 18.136719 C 7.925781 18.007812 7.988281 17.800781 7.925781 17.609375 C 7.863281 17.417969 7.6875 17.285156 7.484375 17.28125 C 5.902344 17.25 4.578125 16.332031 3.871094 15.03125 C 3.894531 15.03125 3.917969 15.03125 3.945312 15.03125 C 4.417969 15.03125 4.886719 14.96875 5.324219 14.851562 C 5.535156 14.789062 5.679688 14.59375 5.671875 14.375 C 5.664062 14.15625 5.507812 13.96875 5.296875 13.921875 C 3.585938 13.574219 2.304688 12.183594 2.011719 10.453125 C 2.492188 10.621094 2.988281 10.753906 3.523438 10.769531 C 3.746094 10.78125 3.941406 10.644531 4.011719 10.4375 C 4.078125 10.230469 3.996094 10 3.808594 9.886719 C 2.671875 9.121094 1.921875 7.824219 1.921875 6.34375 C 1.921875 5.796875 2.0625 5.296875 2.25 4.816406 C 4.648438 7.449219 8.011719 9.199219 11.804688 9.390625 C 11.953125 9.398438 12.101562 9.335938 12.199219 9.222656 C 12.296875 9.105469 12.332031 8.953125 12.300781 8.804688 C 12.226562 8.492188 12.179688 8.164062 12.179688 7.828125 C 12.179688 5.480469 14.074219 3.585938 16.425781 3.585938 Z M 16.425781 3.585938 "/>
</g>
</svg>
